<?xml version="1.0" encoding="UTF-8"?>
<svg id="Layer_1" data-name="Layer 1" xmlns="http://www.w3.org/2000/svg" viewBox="0 0 391.611593 247.23189">
  <defs>
    <style>
      .cls-1 {
        fill: #fff;
      }
    </style>
  </defs>
  <path class="cls-1" d="M351.98085,58.932445c9.227865-3.593662,27.993533-5.268532,35.230209,3.069699,5.563096,6.409901,5.507277,11.375337,1.758238,18.811807-4.662116,9.24762-18.23919,25.516748-26.641379,31.548184-.244485.175501-.507714.30266-.812717.320848-.143214.184123,1.959529,2.019367,2.25771,2.365364,6.067461,7.040435,15.158567,19.946809,16.424105,29.220091.955568,7.001965-6.509231,21.137095-10.6156,26.954163-3.696677,5.236701-11.425128,11.203539-17.1375,14.115444-10.125079,5.1613-27.264534,5.024502-38.099966,2.167749-9.042343-2.384007-17.028964-6.9828-25.714062-9.856724-8.414766-2.784471-16.966098-3.169352-24.552119,1.987858.677965,2.472209.75716,4.789603.333584,7.31516-1.005705,5.996478-5.10099,9.136235-6.94236,14.646846-2.943078,8.807659-1.352973,13.626401,3.61104,20.871306.190317.277765.404273.397381.30186.826943-2.194816-.247399-4.115712-2.217257-5.555902-3.79731-1.94037-2.128807-3.694366-4.602942-4.726129-7.304139-.108208-.081347-.306249.190883-.357493.359181-1.074106,3.527567.479986,8.134621,2.250535,11.217326l4.070157,6.311125c-2.572167-1.664067-5.157412-3.393083-7.583348-5.265272-2.677869-2.066616-4.374881-3.423203-6.151099-6.391201-2.08277-3.480236-3.526058-7.459547-4.565527-11.370419l-.622243,1.327122c-.912957,3.178253-1.787902,6.528826-1.203559,9.85507.211581,1.204376.86893,2.575622.904138,3.824903-.838233-.755259-1.298637-1.924836-1.785919-2.943132-1.693332-3.538635-3.925722-8.263331-4.83708-12.023061-1.482969-6.117859-.547202-12.726128,2.201267-18.33982-.173897-.17159-2.371642,1.53838-2.651985,1.766565-.504973.411023-1.17277,1.000616-1.642745,1.449426-.588274.561781-2.614077,3.093292-3.002368,3.159029-.342501.057985-.332136-.006087-.315584-.312811.051639-.956938,1.043666-3.720113,1.439194-4.732974,5.253467-13.452958,21.992103-18.58309,35.223128-15.354728,17.584299-11.848956,35.601427,2.832978,52.739481,7.38542,10.734463,2.851433,29.726325,3.312044,38.590927-4.264905,3.111388-2.659435,4.775838-4.589895,5.804254-8.588549,1.81787-7.068182,2.425655-15.958849.369301-23.069733-1.69924-5.875981-5.199432-10.287268-8.776182-15.07475-2.027227-2.713444-4.561216-4.856076-7.056579-7.130624-2.219305,7.253951-4.441338,14.638742-7.673118,21.521695-3.733589,7.95169-9.783841,15.000216-16.071937,21.038823-.016631-3.164772,1.651348-6.114369,2.519014-9.095922,3.832216-13.168609,5.030409-28.344474,6.318133-42.000565,1.539849-16.329837,4.333384-34.860608,2.673047-51.193176-.130898-1.287628-1.135299-5.312589-.992896-6.121037.102962-.584535,1.266696-1.258297,1.806958-1.498955,2.796172-1.245547,12.320468-1.867072,15.158749-.950805,1.383393.446594,1.327276,2.665588,1.90805,3.857861.201031.160237,1.863207-.485442,2.194319-.614389ZM367.02024,73.259572c-4.88804.460144-11.32965,4.39264-15.483751,6.926027-.221836.135287-2.387327,2.120178-2.456555,2.272509-.296431.652269-.217042,4.928067-.314233,6.059723-.419776,4.887748-1.808607,10.425017-1.239168,15.224946.036866.310748.008232.509821.316035.707932,7.974349-7.800202,16.958587-15.945183,22.680549-25.634018.448541-.759502,1.918705-3.027046,1.58385-3.758001-.657682-1.435655-3.68335-1.931226-5.086727-1.799117Z"/>
  <path class="cls-1" d="M14.85305,61.276571c.773066-2.882587,1.559151-5.822974,2.580328-8.627367.581339-1.596494,1.606618-4.758584,2.981745-5.653937,3.767968-2.453345,14.419785-5.215848,19.112092-6.383732,1.425132-.354706,4.096525-1.058766,5.458111-1.132102,2.44092-.131471.066973,1.286569-.517458,1.960527-.783009.902955-1.913086,2.70619-2.602186,3.77177-12.780839,19.763442-14.908944,43.471165-14.057816,66.545969l.409444.305084c.20378-1.041768.824044-2.138341,1.334261-3.088916,3.223311-6.005273,6.736745-10.89588,10.39207-16.543034,8.853754-13.678265,18.037295-29.958085,30.317917-40.823655,1.73674-1.536621,5.163775-3.26604,6.389411-4.507997.377753-.382783.322249-.921609.923059-1.338669,2.032695-1.411019,8.563921-1.840284,11.200168-1.958965,1.699873-.076526,4.558461-.200944,6.170964-.00684,2.383468.286909,2.532064,2.460681,1.230641,4.118681-2.902341,3.697555-8.08018,7.550239-11.518818,11.098426-3.814704,3.936234-7.333013,8.192046-10.787675,12.44259,2.513826,1.17619,5.590926.3522,8.069474-.562375,5.774273-2.130684,10.500873-5.876295,14.747279-10.232418-.425386,1.441405-.941053,2.937435-1.546507,4.311322-4.769426,10.822697-9.884623,19.951331-21.482984,24.573988-3.810701,1.518798-8.953581,2.790504-12.955332,1.634028-8.451818,14.156584-14.635017,29.520356-20.148645,45.039249-5.528589,15.561003-8.713797,29.186723-11.282861,45.465908-.166973,1.058047-.191816,2.133796-.435452,3.167185l-.520255-.187096-.197044.39577c-.750919.036253-2.646981-4.191791-3.018429-5.006141-6.070915-13.309659-10.20525-26.056765-12.471231-40.576531-2.734998-17.525095-3.825256-36.98899-2.088427-54.656389.133855-1.361598.408127-2.741402.591462-4.098233l-.318242-.291479c-5.707746-.0011-9.191497-5.212498-10.29314-10.267698-1.20884-5.547109-.107791-13.248548,1.27799-18.757896,1.111411-4.418556,2.60363-8.793577,5.553999-12.334187-.023179,1.34338-.584619,2.65421-.718366,4.010662-.449853,4.562377.345127,13.324798,4.107505,16.449071,1.153374.95776,2.625124,1.571038,4.112945,1.745429Z"/>
  <path class="cls-1" d="M279.682268,80.60591c-1.618979,1.910308-3.869888,3.277625-5.980061,4.606833-9.426641,5.937886-20.341311,10.377265-30.803211,14.122258-.064184.908237.087076,1.687309-.180898,2.595487-.600789,2.03611-2.903581,5.63585-3.923368,7.796496-4.589385,9.723641-9.253233,19.33913-13.98158,28.991219-5.309967,10.839364-10.088581,21.974951-15.192444,32.914728-.654154,1.043965-.745521-1.442211-.757915-1.897161-.128509-4.717319,1.29542-11.247298,2.205164-15.977154,3.262995-16.964651,8.399726-33.558463,13.513622-50.020432.006546-.440206-7.097106,1.068511-7.715141,1.126369-3.89074.364238-6.544669.158377-8.94153-3.18645-2.028467-2.830732-.882066-10.852681.31178-14.079083.107333-.29007.831456-2.034102.903663-2.132217.228117-.309966,1.355946-.363725,1.756318-.342059,2.101168.113704,4.79837.942827,7.025678,1.210022,10.127645,1.214944,22.448182.627508,32.663769-.181574,7.989556-.632779,15.766834-2.159863,23.547494-4.004444,1.87003-.443333,3.766016-.851604,5.54866-1.542839Z"/>
  <path class="cls-1" d="M78.552094,102.666874c.320812-.018439.617828-.081448.96993-.077235,1.257345.015044,6.657712,1.177975,7.71846,1.751897,2.652727,1.435267,4.942831,7.393126,5.801473,10.236222,5.828655,19.299574-8.042237,42.711664-26.265083,49.715221-4.907523,1.886101-7.656941,2.787116-12.585324.238206-9.167508-4.741343-6.105754-25.290921-3.615177-33.298849,3.626934-11.661649,14.511472-27.7916,27.975721-28.565462ZM79.773733,110.035871c-.651263.132345-3.832366,2.386494-4.472128,2.948897-9.299516,8.175028-17.082885,28.54334-10.1069,39.926418.214295.349676.6296,1.156885,1.001758,1.269861.381546.123361.683656.008196,1.032851-.128731,2.260591-.886429,7.276983-4.478386,8.892119-6.321825,7.164123-8.176786,9.027726-17.683791,7.79216-28.342211-.364881-3.147588-1.095526-7.274401-3.617501-9.351722-.176155-.06328-.344853-.036758-.522359-.000687Z"/>
  <path class="cls-1" d="M194.149053,165.931619c-.033118-.50612.054738-1.032062-.004392-1.53793-.887249-7.590589-2.689554-14.992471-4.828801-22.311725-1.726088-5.905666-4.177392-11.509954-6.785953-17.064992-.306697.931879-.512238,1.89577-.887192,2.811799-2.517688,6.150834-6.521457,15.099135-9.947932,20.687442-.446274.727837-1.101512,1.008331-1.194637,1.789515l-.425371-.719569c1.299568-8.527046,1.987938-17.081287,2.280475-25.698954.213284-6.282991.590788-13.488319.212128-19.749414-.184843-3.056357-1.015387-6.114361-1.354647-9.150393,1.395521-.455708,2.865423-.464645,4.337186-.411703,6.518066.234464,8.802798,1.077798,11.352805,7.152218,1.070444,2.549924,2.068225,5.672579,2.98319,8.325442,1.024327,2.969949,1.992474,5.969824,2.824989,8.999668l.365213-.352017c.783953-7.916473.917182-15.862219,1.081652-23.816913-.294006-8.199309-.716366-16.446064-3.307859-24.243875-.102028-.307003-.242225-.595551-.196261-.932698.319814-.348734,2.036152,2.128057,2.222498,2.401652,4.785203,7.025677,7.696228,17.322265,8.850245,25.692484,1.820211,13.202212,1.73921,28.368816.030286,41.505396-1.038864,7.985794-2.484332,17.118636-5.993299,24.4372-.103938.21678-1.234432,2.619405-1.614326,2.187368Z"/>
  <path class="cls-1" d="M110.258545,145.163842c2.600036.119838,5.327492-.155987,7.913364.004676,8.748351.543544,21.51089,4.641205,30.076625,7.344665,4.742615,1.496832,9.360344,3.300293,14.029962,4.991622.119454.812587-1.318921.115032-1.958973.187336-1.303106.147206-2.051798.528208-3.704249.435903-9.405167-.52537-17.000846-1.866693-26.722983-1.449997-10.424064.446781-20.902714,1.91576-31.014722,4.144842-2.848211.627857-5.747443,1.049312-8.561338,1.819918-.622862-.867527,4.411916-12.874962,5.086228-14.753156,1.732124-4.824569,4.317358-11.228597,4.984718-16.193265,1.759739-13.091171.89303-27.058548-1.25792-40.066067-.122979-.743693-.296971-1.296311-.588585-1.979455.353644.198987.80678.161172,1.139801.400211.432337.310329,1.870978,2.471615,2.453497,3.097983,4.575112,4.919504,10.715374,9.851169,13.506641,16.101413,1.251462,2.802291.503798,5.24717.14019,8.231484-.962991,7.903759-2.263984,17.985208-4.463225,25.556051-.241928.832834-.639542,1.398938-1.05903,2.125836Z"/>
  <path class="cls-1" d="M295.104076,115.556588c1.267506.021297,2.541449-.020557,3.811057-.008121,6.262318.061343,12.615087-1.578521,18.916656-1.232805,1.678806.092102,3.367114.654127,5.027975.420833.08412.375333-.115119.402303-.343132.580059-.756649.589875-2.175692,1.208605-3.077537,1.651494-4.73528,2.32546-10.38433,4.725304-15.295529,6.7049-4.338497,1.748752-8.817974,3.193079-13.270875,4.617323l-4.605527,13.497334c-.05933.337297.972666.607245,1.177328.654523,5.13827,1.186971,11.219925,1.768671,16.538391,2.788191,3.909541.749437,7.990426,1.899718,11.837079,2.555743.625079.106604,1.22739-.018009,1.801996.051749.286202.034745.610303.131445.303906.409532-1.002046.396321-2.057858.427898-3.082162.724154-8.901748,2.574625-17.323192,4.977421-26.520873,6.582576-2.424849.423178-8.833427,1.668264-10.495845-.411163-.932047-1.165846-.614607-2.726648-.345307-4.056044,1.634581-8.069063,3.703256-15.970513,5.349574-24.052856,1.047414-5.142113,2.063719-10.309141,3.582007-15.334249.618499-2.04706,2.118582-5.143415,2.47319-6.984036.206198-1.070286-.248698-2.751345-.154007-4.061326.203041-2.808915,1.824251-7.761687,3.612199-9.958359,1.145087-1.406854,1.543511-1.404507,3.297882-1.636793,2.586351-.342445,5.379648-.21317,7.991584-.438487,6.374139-.54986,12.99376-1.69527,19.330192-2.052827.537097-.030308,1.529726-.141317,1.981774-.093689.89373.094165,1.480542.949648,2.439348.600707.894658.507184-1.298971,1.962507-1.668557,2.244971-4.053151,3.097709-10.424588,5.843199-15.119055,8.115042-3.528354,1.707513-7.160641,3.203123-10.663498,4.962974-2.056506,4.185689-3.283006,8.761738-4.830233,13.158649Z"/>
  <path class="cls-1" d="M282.354265,103.634469l-2.9449,1.883847c-6.178257,4.177199-13.121769,6.473715-19.74507,9.657371-1.300845.625284-4.896146,2.223194-5.791387,3.049907-.409626.37827-3.017434,5.438012-3.494581,6.37477-.156235.306727-.896346,1.609155-.713226,1.854805,3.931361-.477579,8.257319-.610963,12.22975-.409039,1.416021.071979,4.206041.276649,5.494524.673821.573845.176886,1.347279.435234,1.189454,1.171785-5.890922,2.141673-11.475887,5.15036-17.425086,7.147783-2.566302.861627-5.197692,1.489713-7.817449,2.155533l-4.569287,8.691816c5.256818-.55942,10.629334-.773404,15.90798-.284186,5.473607.507288,9.936928,1.55272,15.08183,3.217618.542751.175635,1.337379-.18885,1.65167.558581.06053.42811-.854084.856894-1.189,1.025703-6.73883,3.396597-16.70874,3.860127-24.099309,5.097194-4.073934.681913-8.836907,2.365402-13.006854,1.999-.738902-.064925-2.583114-.306252-3.249088-.45209-3.117102-.682599.050113-5.860956,1.042666-7.302058.499791-.725653,1.518173-1.649104,1.848339-2.26389.796509-1.483142,1.477109-4.506471,2.155872-6.274199,1.147312-2.987987,2.313702-6.005221,3.612703-8.929597,1.523129-3.428943,5.297845-9.449033,6.107871-12.602773.461031-1.794967.03651-5.239131.331637-7.4816.594145-4.514509,1.243406-5.159444,5.559776-6.160079,7.036987-1.631337,17.114279-1.787962,24.535084-2.194409,2.417082-.132387,4.878096-.017879,7.296081-.205615Z"/>
  <path class="cls-1" d="M161.531789,95.948549c.345665.352044.454388.227749.694669.848254,1.482421,3.828237,1.933422,12.062988,1.705137,16.199407-.420662,7.622213-3.366859,13.512816-6.961578,19.973526-3.785462,6.803529-12.678178,16.29881-20.902579,10.136136-7.267898-5.445951-8.158439-21.483226-7.60856-29.805981,1.504644-1.497317,3.01426-3.03892,4.619624-4.427281.594816-.514412,3.032894-2.700568,3.506697-2.864941.893255-.309891,2.715986.30762,3.285485,1.013156.575653.713159.671087,1.999653.793149,2.907857.964441,7.175926.925233,15.243232,2.585092,22.293898.375525,1.595136,1.80113,1.710632,2.748147.466019,2.252623-2.960497,4.867591-8.763641,6.448068-12.262587,3.583042-7.932332,6.855627-16.478296,8.601846-25.017612.141032-.107626.36388.416995.484802.540149Z"/>
  <path class="cls-1" d="M276.454087,8.699195c.814802-.960121,2.164872-.274062,3.009292.262472,4.630653,2.942255,11.587905,15.351107,12.123697,20.776133.077769.787429.070882,1.507961-.598047,2.04073-.890941.431015-2.812751-1.040786-3.49593-1.649773-3.908084-3.483675-8.782431-10.479169-10.487677-15.419369-.508633-1.473541-1.651704-4.713575-.551336-6.010192Z"/>
  <path class="cls-1" d="M335.274571,26.812464c-1.488957,1.467836-6.478448,5.748396-8.405456,5.894817-2.693307.204647-.574406-3.937717-.003165-5.155383,2.253335-4.803242,7.790348-11.810477,12.256308-14.678796,2.227866-1.430874,5.557331-2.829739,4.902957,1.407721-.483006,3.127752-6.408436,10.222656-8.750645,12.53164Z"/>
  <path class="cls-1" d="M263.511013,31.596387c-1.095937-1.059454-3.458223-3.678495-3.570634-5.174239-.257072-3.420611,4.974197-1.158555,6.621388-.446659,4.824871,2.08525,11.332817,6.979131,14.553702,11.147733,1.277442,1.653317,3.16772,4.421511-.661224,3.949829-4.65957-.574006-13.528393-6.175503-16.943233-9.476664Z"/>
  <path class="cls-1" d="M357.743493,32.83119c-3.720863,4.39087-15.729323,9.418877-21.41699,9.730969-.881366.048362-2.078985.198553-2.483459-.81096-.410345-1.500167,3.923754-4.811228,5.072167-5.645436,3.869715-2.810967,13.631653-7.75773,18.375154-6.894573,1.943895.353723,1.392305,2.511709.453129,3.620001Z"/>
  <path class="cls-1" d="M271.004238,63.392906c1.589206-.103096,6.673632-.284298,7.845653.463554,1.896088,1.20987-1.101506,3.021217-2.113644,3.623563-5.418635,3.224748-14.697409,5.755429-20.981918,5.079302-1.941067-.208832-3.908622-1.381337-2.196544-3.378661,2.564749-2.992057,13.504073-5.532007,17.446454-5.787759Z"/>
  <path class="cls-1" d="M321.783334,1.073184c2.336223-.334262,2.168441,3.490245,2.103453,4.994452-.248522,5.752295-3.039098,13.863437-6.202101,18.676953-1.750606,2.664104-3.7444,4.143485-4.08397-.368111-.422489-5.613288,2.577093-17.928248,6.482119-22.11273.477595-.511773.963194-1.085072,1.700499-1.190564Z"/>
  <path class="cls-1" d="M255.583843,45.505174c6.215406-.503191,14.638963,1.316257,20.1896,4.156476,4.232126,2.165547,3.203474,3.804235-1.131818,4.209509-5.713021.534068-14.614707-.605838-19.812794-3.209211-4.217224-2.112125-4.539885-4.728106.755012-5.156774Z"/>
  <path class="cls-1" d="M298.54246.044756c2.365437-.514965,3.562419,3.548828,4.10923,5.261671,1.649141,5.165803,2.254019,12.652599,1.474515,18.010759-.811425,5.577581-2.826081,4.015276-4.535209.059573-2.238926-5.181899-3.418826-12.49355-3.046532-18.127499.087284-1.320882.437586-4.864797,1.997995-5.204504Z"/>
  <path class="cls-1" d="M148.912336,209.317678c.780365.870103-5.052477,12.653754-5.927933,14.322687-2.497228,4.760613-5.627818,9.858308-8.912524,14.115962-.199226.258238-2.166211,2.946799-2.42771,2.607665.170707-1.684264.987441-3.281974,1.673446-4.80121,3.361183-7.443721,7.991698-15.432725,12.507379-22.240961.696153-1.049582,1.609359-2.69062,2.385213-3.57748.205479-.234878.316686-.507107.702129-.426664Z"/>
  <path class="cls-1" d="M135.958926,193.280097c.071772.417202-.265213.585277-.546856.787522-2.676532,1.921993-12.762202,4.412934-16.34954,5.239652-5.672049,1.30715-11.624141,2.188055-17.438694,2.400702-.444473-.388432,1.542282-1.155671,1.741845-1.237409,3.220357-1.319012,7.731008-2.366581,11.167786-3.225018,7.048719-1.760626,14.213692-3.044423,21.425458-3.965449Z"/>
  <path class="cls-1" d="M135.548631,183.201958c-5.136787.46178-10.777791-.395468-15.87963-1.286798-3.851638-.67291-7.71571-1.629934-11.466135-2.721057-.883511-.257043-7.37945-2.166935-7.398415-2.672403.246966-.376272.544191-.289356.912023-.317533,4.305371-.329809,14.302393,1.777811,18.869302,2.738104,4.101292.862387,9.150422,2.049194,13.111571,3.337347.609007.198047,1.522614.336521,1.851284.92234Z"/>
  <path class="cls-1" d="M140.687938,202.73816c.451287.454167-3.723524,4.487853-4.208569,4.939045-4.700612,4.372539-10.649148,8.871323-16.078265,12.296119-.872325.55028-7.412814,4.573997-7.879853,4.14631.075099-.461919.591532-1.008059.900519-1.361183,4.336432-4.95587,14.915106-12.319417,20.622834-16.076731.638358-.420222,6.370499-4.218136,6.643334-3.94356Z"/>
  <path class="cls-1" d="M184.809483,210.019503c5.589147,5.164897,11.387397,11.436183,15.674632,17.737216.272325.400242,1.892393,2.6907,1.680686,2.943475-1.993082-.99529-3.631321-2.600346-5.246499-4.106726-5.981609-5.578691-12.720529-13.038187-17.657009-19.558669-.501335-.662201-1.184784-1.423149-1.355579-2.240525.622784-.626268,6.231459,4.603951,6.903769,5.225229Z"/>
  <path class="cls-1" d="M180.781173,243.859347c-.976949-.804476-1.559942-2.219606-2.08972-3.356872-3.412275-7.325067-6.455385-16.963927-8.49926-24.8098-.452804-1.738191-1.016686-3.57396-1.126742-5.347909,1.494085,1.353854,2.475416,3.567589,3.324918,5.41146,3.351906,7.275418,6.335157,16.126821,7.880999,23.98878.268506,1.365591.644845,2.705254.509806,4.114341Z"/>
  <path class="cls-1" d="M216.147396,209.932406c-1.286464-.133114-2.575596-.439225-3.809931-.814217-8.125771-2.468615-20.124518-7.721744-27.445759-12.031645-.418467-.246345-1.244695-.565121-1.2289-1.13352.851726-.719532,11.356463,3.121208,13.003231,3.751993,5.801769,2.222334,13.226018,5.514463,18.313084,9.033243.385994.266996,1.15004.673504,1.168276,1.194146Z"/>
  <path class="cls-1" d="M220.466428,184.850973c.087861.471476-.033526.327012-.263216.456843-.559427.316212-1.837094.4795-2.515749.566136-9.215948,1.176503-20.528834,1.054595-29.808631.412229-.359452-.024882-2.582755-.241247-2.56804-.512046.896647-.707621,2.297966-.912917,3.416243-1.103066,3.49193-.593758,8.316355-.92114,11.889218-1.064305,6.55874-.262809,13.381988.292479,19.850174,1.244209Z"/>
  <path class="cls-1" d="M156.106926,247.14864c-.468296.45973-.607003-1.125217-.622617-1.328069-.659444-8.567689.906531-24.04165,2.921034-32.460498.079257-.331224.016051-1.242597.477236-1.162875.545575.926854.666944,2.496418.731243,3.587662.404841,6.870803-.377549,15.567807-1.507729,22.36036-.191182,1.149033-1.608465,8.619864-1.999167,9.003419Z"/>
  <path class="cls-1" d="M212.652985,195.538697c-1.873825.229753-3.759553.133957-5.652193-.00009-6.343737-.449298-15.467504-1.490238-21.440546-3.438443-.793791-.258908-4.448996-1.211594-2.709002-2.407952.674946-.464069,2.715901-.365544,3.584307-.317915,6.791797.372509,16.154599,2.852534,22.766393,4.785604,1.115056.326005,2.659494.552917,3.451041,1.378797Z"/>
  <path class="cls-1" d="M155.03117,208.957707c.955055.992744-.569538,7.016331-.950597,8.507466-1.50735,5.898472-4.12085,12.976287-6.452161,18.63243-.198141.480722-.364651.994252-.608347,1.452654-.163495.30754-.32936.882436-.778494.75657.408348-5.27611,1.651761-10.732743,2.937372-15.873933.908112-3.631562,2.216594-9.012605,4.014682-12.228611.304716-.545005,1.105704-2.007298,1.837545-1.246576Z"/>
  <path class="cls-1" d="M168.650093,239.541509c-1.052183-.904872-1.432884-2.920909-1.788069-4.275357-1.162513-4.433073-2.24165-10.022065-2.910969-14.566007-.541664-3.677306-.936414-7.560171-.456062-11.245517,1.180859-.9616,1.809358.825322,2.131165,1.757177,2.004236,5.803649,2.464372,15.203644,2.818248,21.443908.129651,2.28627.203458,4.595804.205688,6.885797Z"/>
  <path class="cls-1" d="M189.213252,231.520656c-.520381.409003-2.509054-2.134715-2.872833-2.573765-3.996951-4.82398-10.223653-13.670015-12.789893-19.285498-.41996-.918962-2.389014-4.818898.027452-3.93431,2.373382.868817,8.491697,11.860013,9.950527,14.517478,2.02189,3.683159,3.960733,7.450766,5.684747,11.276094Z"/>
  <path class="cls-1" d="M140.247619,197.213952c.607191,1.214979-1.03067,2.233197-1.917818,2.855449-5.453022,3.824794-17.773534,8.933434-24.258216,10.901256-.377001.114404-.733011.25411-1.139153.195409-.069708-.40276.269015-.585411.51944-.814947,3.352636-3.072995,14.827424-8.990304,19.285423-10.939442,1.19498-.522472,6.583963-2.780008,7.510324-2.197725Z"/>
  <path class="cls-1" d="M204.633025,216.100886c-.511407.490938-10.008669-5.103826-11.165198-5.795646-4.137578-2.475044-10.130276-5.97694-13.410769-9.412109-1.783798-1.867904-.874493-2.693148,1.41897-1.83038,5.544284,2.085681,17.203993,11.21695,21.81611,15.399757.215977.195873,1.580636,1.408224,1.340886,1.638378Z"/>
  <path class="cls-1" d="M126.709472,228.438514c-.322686-.407987,1.849093-3.698921,2.214141-4.260523,3.538768-5.444153,10.153073-14.404067,15.052617-18.46205,1.82148-1.508617,3.431322-1.739632,2.138617,1.110374-1.969176,4.341412-9.307523,11.732864-12.822101,15.346853-2.104941,2.16448-4.235119,4.381397-6.583274,6.265346Z"/>
  <path class="cls-1" d="M107.175026,189.988194c-.120278-.5387.203417-.415392.5696-.549732,3.641374-1.335899,13.203443-1.885507,17.41222-2.130685,2.399894-.139803,10.14487-.348543,12.035622.523628,1.96614.906946-.717604,1.914141-1.597524,2.101234-6.088106,1.294486-12.681626.488969-18.868175.681875l-9.551744-.62632Z"/>
  <path class="cls-1" d="M110.669776,167.990817c1.481435-.130479,2.903191.348313,4.317308.718061,6.063799,1.585499,15.734724,4.833292,21.110849,7.88037.761608.431664,4.352781,2.258919,2.581956,3.063719-.988975.449466-2.278559-.033554-3.287839-.301733-6.31138-1.677015-13.454443-5.27182-19.310344-8.241583-1.804926-.915351-3.849177-1.880016-5.41193-3.118834Z"/>
  <path class="cls-1" d="M182.636389,141.672103l.569313,1.386704.003349.927319c-3.329171,6.899468-6.071742,14.822668-10.688323,20.98324-.481745.642862-1.492908,2.371299-2.430256,1.89401-.752884-.555628-.318474-1.495392-.144754-2.207372,1.042106-4.271001,3.906013-8.278698,6.279276-11.814456,2.361491-3.51822,3.936541-7.682404,6.411394-11.169446Z"/>
  <path class="cls-1" d="M204.839266,176.210727c-4.741089,1.421193-9.510982,3.209399-14.353427,4.256413-1.576534.340872-6.853772,1.425518-8.118815,1.049939-.297467-.088315-.538191-.379546-.565324-.688903-.049738-.328387.11738-.496847.303859-.724122.792058-.965337,4.019103-1.890479,5.30531-2.300662,5.166745-1.64772,10.566502-2.419779,15.884327-3.44107.680938.062608,1.010621,1.398489,1.54407,1.848404Z"/>
  <path class="cls-1" d="M120.709762,55.756703c.862406,1.415344-2.968474,2.224715-3.829439,2.375-3.814604.665856-7.830188.47623-11.594928-.415074-2.993648-.708748-4.721266-1.59245-.415693-2.34303,4.165969-.726243,8.469311-1.034712,12.658731-.44188,1.085945.153669,2.191134.34451,3.181328.824984Z"/>
  <path class="cls-1" d="M101.006988,52.022801c.920531-2.341943,4.001905-3.888778,6.162916-5.040797,1.796766-.957843,3.660364-1.794803,5.604538-2.414309.734564-.234067,4.135636-1.429938,4.590067-.781718.785145,1.119966-1.614319,2.803039-2.39935,3.383657-3.87373,2.865053-9.190457,4.465272-13.95817,4.853168Z"/>
  <path class="cls-1" d="M102.984865,61.087523c.830375-.235694,8.833007,2.630605,10.086097,3.236342,1.069962.517214,5.313106,2.8775,5.719533,3.740316.588889,1.250168-1.186665,1.255059-2.02704,1.206394-3.320568-.192288-7.601236-2.253441-10.394179-4.002146-.630936-.395039-3.228551-2.023845-3.526958-2.435228-.270275-.372602-.381888-1.596822.142546-1.745678Z"/>
  <path class="cls-1" d="M112.082259,79.342694c-.573248.921662-3.989922-1.56033-4.593383-2.034729-1.989222-1.563789-3.573039-3.407212-5.005808-5.480377-.44611-.645504-2.145629-3.037241-2.058185-3.612881.062643-.412379.569821-1.281927.782515-1.705294.238798-.142874,1.469558.916282,1.746378,1.146464,2.787847,2.318149,6.939973,6.302562,8.572874,9.52093.357108.703843.770677,1.319259.555608,2.165888Z"/>
  <path class="cls-1" d="M139.249687,173.332582c-1.539385-.032883-3.101569-.905576-4.455858-1.607573-4.458781-2.311213-8.938795-5.538399-13.021032-8.463249l5.088135-.052755c4.152476,3.331962,8.640701,6.326887,12.388756,10.123576Z"/>
  <path class="cls-1" d="M187.772954,162.643886l.361938,3.440276c-.006158.572942-3.697788,3.225795-4.408038,3.717375-.999217.691579-4.549512,3.077427-5.537616,3.119021-.533261.022448-.950864-.325742-.871484-.872013.245207-1.687426,6.233002-6.443591,7.804553-7.636734l2.650646-1.767926Z"/>
  <path class="cls-1" d="M94.42343,21.182759c.030217.358329.264587.64135.360114.979076.938012,3.316254-.542403,10.443233-1.791749,13.726132-.178087.467957-.554066,1.787959-1.133945,1.535948-.354368-.154006-.505126-1.884109-.525144-2.352623-.140375-3.285549.539254-9.013448,1.700938-12.0949.118613-.314629.907652-2.145828,1.389786-1.793633Z"/>
  <path class="cls-1" d="M120.332402,35.987273c.670894.639607-3.056073,3.867591-3.603369,4.310552-2.095665,1.696151-4.868991,3.31866-7.360082,4.359772-.892476.372996-1.817414.849513-2.810434.785655-.090041-.339979.08422-.482667.204308-.725314.493791-.997742,4.882503-4.497222,6.019011-5.283139.974291-.67374,6.739894-4.220394,7.550567-3.447527Z"/>
  <path class="cls-1" d="M109.023798,25.911294c.705981.705045-2.572529,6.812452-3.203317,7.795821-.566452.883071-4.684432,6.169328-5.329975,6.158094-.175091-.12889-.430215-.318874-.480523-.528763-.297448-1.240976,4.021558-8.567686,5.018838-9.916387.437352-.591466,3.260126-4.242643,3.994977-3.508766Z"/>
  <path class="cls-1" d="M101.318719,75.257348c.577707-.082827,1.46069,1.217143,1.824993,1.666717,2.183742,2.694877,4.792877,7.178877,5.733305,10.510108.205518.727997.686,1.840407.040155,2.423197-1.053866.207472-4.414412-5.171194-4.934298-6.164842-.892032-1.704921-2.753891-6.054609-2.846074-7.862549-.012851-.252031-.203468-.332449.181918-.572631Z"/>
  <path class="cls-1" d="M122.14205,49.617461c.741976-.046989,4.180734-.340394,4.359834.459899.184136.822794-3.589177,2.048668-4.315718,2.257166-2.299432.659877-5.106017,1.049494-7.498552,1.137116-1.357268.049708-3.303545.24541-4.424983-.522472-.003813-.722788,5.493894-2.266022,6.368355-2.468817,1.786802-.414373,3.674719-.746597,5.511063-.862892Z"/>
  <path class="cls-1" d="M112.812576,75.58262c-1.24082-1.027313-3.167658-2.896122-4.204331-4.123089-.502536-.594783-1.247365-1.358798-1.227277-2.163192.463775-.457785,4.076816,1.781851,4.710634,2.175231,3.118637,1.935586,6.573795,4.622706,8.441247,7.79827-.143064.193873-.263764.285986-.511603.319068-1.336789.178439-6.035264-3.03479-7.20867-4.006289Z"/>
  <path class="cls-1" d="M79.558659,23.098875c.520977.436642,1.425779,2.375436,1.744258,3.085132,1.646929,3.670005,2.141371,7.395175,2.619582,11.358948-.550232,1.309627-1.104813.608669-1.590027-.257355-1.631949-2.912749-4.044448-10.297907-3.738481-13.535809.030405-.32176.152909-.611097.208197-.922945.272657-.010061.549558.09861.756472.272029Z"/>
  <path class="cls-1" d="M163.304193,134.473905c.712585,5.636344.446783,11.399523.205613,17.065879l-2.954077-1.211967-.149937-.328613c.783359-4.401153.960277-9.170528,1.929515-13.514746.098521-.441581.361836-1.328924.540017-1.721675.109585-.24155-.09763-.371354.428868-.288878Z"/>
  <path class="cls-1" d="M110.800578,61.304441c1.233289-.375395,5.058153.189251,6.496031.438669,3.127431.542493,6.882398,1.594326,9.406871,3.542743-.000852.714629-3.353848.568114-4.013413.52192-1.159767-.081226-2.899786-.407728-4.043354-.685703-1.077989-.262034-8.181675-2.791592-8.17846-3.537249.100075-.103003.185812-.235784.332326-.280381Z"/>
  <path class="cls-1" d="M109.614376,34.16248c.760243.484029-.583516,3.059949-.914627,3.657571-1.360373,2.455341-3.394187,4.801132-5.534851,6.592123-.237138.004113-.737827-1.826536-.887454-2.19279-.218093-.533845-.949308-.980162-.554276-1.704188,1.111918-1.275099,2.237589-2.574563,3.49242-3.711968.697568-.63229,3.494103-3.21674,4.398787-2.640749Z"/>
  <path class="cls-1" d="M137.913232,162.642872c.442662.125959,4.557651,5.059763,5.083007,5.814404.805098,1.156472,2.630287,4.005244-.39977,2.866563-1.445745-.543304-7.696805-6.626553-8.796788-8.062754-.158701-.207209-.3966-.259369-.307095-.618213h4.420647Z"/>
  <path class="cls-1" d="M186.128025,153.596983l.514984,3.489244c-3.2385,3.252871-6.332245,7.182401-9.868857,10.080391-.232043.190142-.331269.499506-.718871.40994-.486289-.549825,2.493585-4.826752,2.993724-5.537044,1.75866-2.497632,4.211113-5.682046,6.263354-7.923816.229149-.250311.414376-.587996.815667-.518715Z"/>
  <path class="cls-1" d="M101.826364,84.304831l-3.041394-.659304c-1.200277-2.117936-2.264944-4.373933-2.67285-6.797698l2.017777-3.851064c1.399675.969381,4.147149,10.678778,3.696467,11.308065Z"/>
  <path class="cls-1" d="M357.053759,212.952246c-1.261944-1.117045-2.567348-7.130474-2.707915-8.905353-.059816-.755267-.138384-3.929009.719653-4.176214.420939-.091336.66106.219094.899409.501613,1.621005,1.921401,2.494471,8.784787,2.234603,11.282519-.031852.306147-.196064,1.339594-.376248,1.478661-.231292.174126-.588457-.02097-.769502-.181226Z"/>
  <path class="cls-1" d="M361.853485,196.796912c.705254-.239287,1.331289.387422,1.825919.795149,1.94072,1.599745,5.016406,6.430954,5.742074,8.855804.111113.371288.586294,1.493861-.003663,1.625874-2.705215-1.187008-5.172289-4.400022-6.543214-7.003929-.338455-.642854-1.999188-3.941045-1.021115-4.272897Z"/>
  <path class="cls-1" d="M382.018964,185.520327c.55159.562596.12654.945636-.509459,1.126187-2.378445.675206-10.41367.104712-12.286637-1.587785-2.057318-1.859085,3.450582-1.695514,4.319154-1.647125,1.457732.081211,7.579035,1.192901,8.476942,2.108724Z"/>
  <path class="cls-1" d="M332.73113,207.877339c-.521358-.520521,1.457281-4.337294,1.886042-5.000864.78306-1.211898,4.263937-5.398248,5.503118-5.806828.655305-.216065,1.271876-.203104,1.237343.602186-.096977,2.26146-4.482803,7.493388-6.269122,8.965765-.343519.283146-1.986386,1.61014-2.357381,1.23974Z"/>
  <path class="cls-1" d="M347.673067,199.889701c1.214243-.104804.774658,3.749717.631488,4.543097-.225608,1.250211-2.287186,8.78215-3.546128,8.78687-.175638-.168919-.390733-.305653-.469137-.555532-.453707-1.445995-.041894-4.483892.261249-6.022637.240768-1.222127,1.783032-6.636183,3.122528-6.751798Z"/>
  <path class="cls-1" d="M367.550432,193.206953c-.913169-.985231-1.709995-2.403933.387204-2.137609,2.170389.275618,6.575664,3.199329,8.273753,4.682525,4.813561,4.204404-.363931,2.735103-3.049205,1.404313-1.551966-.769136-4.458591-2.705066-5.611752-3.949228Z"/>
  <path class="cls-1" d="M351.360978,151.551195c.931622-.161264,1.465957,4.063444,1.516455,4.823192.121428,1.826909-.103938,5.243432-.626056,6.976302-.267268.887043-.871785,2.6817-1.786569,1.192952-1.266442-2.061048-.696162-9.687173.206506-12.025593.110176-.285419.38527-.914162.689664-.966853Z"/>
  <path class="cls-1" d="M338.801906,154.214071c.780212-.231896,2.573221,2.590325,2.935059,3.225757.961774,1.688991,2.152981,4.679058,2.449557,6.59679.119425.772231.538453,3.369961-.87756,2.522622-2.019436-1.208425-5.073816-9.360035-4.837273-11.631204.025647-.24625.060086-.633676.330216-.713965Z"/>
  <path class="cls-1" d="M321.628096,172.720476c2.13118-.52069,4.631682.155487,6.6846.81657,1.090288.351096,6.518833,2.516112,6.268519,3.802419-.385307.378966-1.439913.430046-1.988864.440682-2.502486.048483-7.646457-2.04248-9.712958-3.53886-.342401-.247937-1.589003-1.014647-1.251297-1.520811Z"/>
  <path class="cls-1" d="M65.94625,30.443183c2.853,1.402257,5.430096,4.119588,7.263193,6.712858.478448.676857,1.339117,1.933837,1.699771,2.630696.096707.186858.293382.184336-.003323.419042l-1.517167.888222c-1.295176-.191887-6.451356-7.031753-7.16895-8.462551-.302449-.603047-.936718-1.664062-.273523-2.188267Z"/>
  <path class="cls-1" d="M88.852173,37.609062l-3.67592.434622c-.45457-.32452-.504855-7.130393-.420763-8.130197.07124-.847008.264062-2.392015,1.442896-1.845212,1.472573.683054,2.922661,7.814326,2.653787,9.540787Z"/>
  <path class="cls-1" d="M97.709077,38.036294c-1.176145-.221194-2.419582-.237081-3.595973-.405723-.306119-.043884-.329435.126713-.306184-.306669.070595-1.315875,1.288979-4.048137,1.882228-5.31805.361099-.772971,2.539802-5.669961,3.216933-2.65832.603433,2.683862-.689942,6.062772-1.197003,8.688762Z"/>
  <path class="cls-1" d="M295.308762,63.334562c.329446.25972-1.961998,1.662806-2.198367,1.808968-1.864944,1.153216-4.175163,2.338424-6.157863,3.300262-1.263495.61294-10.216235,4.595996-10.76538,4.139359.173211-.5772,1.034134-1.072151,1.577206-1.402273,2.355075-1.4316,5.520089-3.149169,8.008312-4.328172,1.110591-.526235,9.078118-3.87919,9.536092-3.518145Z"/>
  <path class="cls-1" d="M288.600731,36.318267c1.441935,1.413984,2.899713,2.766397,4.235213,4.299729.462382.530876,4.491113,5.293911,4.116791,5.647655-1.116998-.285844-2.312467-1.463557-3.19142-2.255186-2.814686-2.535049-6.15503-6.006075-8.522234-8.954742-.576027-.717518-2.460924-3.001625-2.675297-3.699709-.08122-.264485.043278-.403203.302121-.302121.377856.147559,2.304116,1.926601,2.782048,2.359288,1.012173.916352,1.976453,1.947686,2.952777,2.905084Z"/>
  <path class="cls-1" d="M323.886732,24.266367c.060331.517875-.137463.967561-.31003,1.435569-1.655294,4.489219-5.868757,12.533878-8.854855,16.229742-.325988.403472-1.180865,1.346347-.965181.274205.432422-2.149522,2.811734-6.534717,3.926641-8.621378,1.708292-3.197243,3.694279-6.736604,6.203425-9.318137Z"/>
  <path class="cls-1" d="M342.187206,46.473467c.072299.52827-.41225.609982-.765491.774482-2.606387,1.213761-8.224269,2.602743-11.152818,3.239986-1.104165.240263-7.962118,1.502398-8.435129,1.12366-.087167-.468405.024812-.328169.2621-.458165.664658-.364125,2.056216-.816157,2.828852-1.074997,5.47308-1.833533,11.51928-3.037872,17.262486-3.604967Z"/>
  <path class="cls-1" d="M293.867508,51.818208c-2.402656-.017397-19.211924-7.062681-19.321418-8.121484-.046948-.453989,1.400605-.007004,1.597636.04335,4.67599,1.195009,11.612745,4.000383,15.807822,6.398002.243524.139181,2.311272,1.273193,1.91596,1.680132Z"/>
  <path class="cls-1" d="M301.88634,42.771315c-.919239-.845296-1.370628-2.217217-1.88524-3.355741-2.316844-5.125774-4.391711-11.024003-5.101442-16.588457.596001.495544.936846,1.427706,1.267832,2.122646,1.915978,4.022798,5.002355,11.636423,5.671768,15.917443.098988.633046.040393,1.270015.047083,1.904109Z"/>
  <path class="cls-1" d="M335.402047,33.519955c.240245.219259-1.411723,1.74081-1.641016,1.955082-3.596372,3.360768-8.911447,7.655189-13.178424,10.055673-.284662.160143-1.603086.950188-1.83307.734971-.089096-.386996.218786-.487162.409887-.718931,2.531458-3.070186,8.715993-7.636286,12.1488-9.851571.525357-.339027,3.774175-2.466949,4.093824-2.175224Z"/>
  <path class="cls-1" d="M299.421027,68.063667c.430525.340333-5.916812,8.200972-6.473817,8.842141-1.659752,1.910542-4.054781,4.568472-5.960347,6.170734-.37065.311655-.835895.776223-1.340739.816081-.211898-.221988,1.879105-3.068021,2.175446-3.476772,2.56308-3.535329,6.80072-8.95681,10.158262-11.636558.41336-.329914.868136-.771579,1.441194-.715626Z"/>
  <path class="cls-1" d="M309.700546,20.566407c-.046848,4.073836.139134,8.169211-.20648,12.23087-.179937,2.11463-.543341,5.334263-1.086959,7.343113-.129031.476813-.256166,1.181123-.759562,1.397277.088824-.803999-.176183-1.561966-.217437-2.354679-.217226-4.174154.439667-14.327182,1.807816-18.165934.117491-.329655-.109749-.550559.462621-.450646Z"/>
  <path class="cls-1" d="M293.252221,57.577881c-.558402.638665-1.953537.687584-2.800525.794718-4.393873.555774-10.361551.691538-14.772727.379924-1.090233-.077016-2.481722-.075843-3.397616-.664115.952855-.254319,1.999245-.404024,2.982331-.511018,5.238884-.570175,11.204376-.943706,16.424739-.391022.533725.056506,1.034288.321345,1.563798.391513Z"/>
  <path class="cls-1" d="M331.84762,163.487561c.204422-.050624.291902.013689.459354.077966.59951.230121,3.563677,3.245297,4.118035,3.915322.482741.583466,3.089465,3.987346.985137,3.764965-1.905534-.201372-6.039011-4.343791-7.126649-6.004159l1.564123-1.754094Z"/>
  <path class="cls-1" d="M66.874398,46.270093c-.56295.579108-1.655986,2.224836-2.511844,2.012121-.545652-.135617-2.167844-1.036162-2.766414-1.363372-.828136-.452703-5.038312-3.032442-4.997191-3.840303.913694-.707271,2.600062-.045551,3.646936.255882,2.342734.674557,4.498606,1.791918,6.628513,2.935673Z"/>
  <path class="cls-1" d="M73.680676,32.512679c.153775-.054924.330476-.135266.49472-.133288,1.658927.019978,4.921954,4.320891,5.660254,5.761782.102406.199859.334952.154331-.004074.418697-.906886-.212789-3.29894,1.127733-3.815985.737971-.558341-.420892-2.816246-5.74991-2.334914-6.785162Z"/>
  <path class="cls-1" d="M316.487878,67.857012c.254283-.278038,1.25273,1.1292,1.429595,1.344052,2.674431,3.24884,4.68418,7.022339,6.898791,10.581493.329416.774871-1.078872.744058-1.546648.513902-.195701-.096289-.941427-1.218648-1.1555-1.516068-1.452724-2.018329-3.203547-5.167802-4.300338-7.419516-.24051-.493767-1.575266-3.2312-1.325899-3.503862Z"/>
  <path class="cls-1" d="M304.971479,70.529994c-.242399,4.017903-1.605009,7.925315-2.659928,11.792534l-1.861375.336422c-.424412-.426776,3.173054-10.165336,3.765756-11.349035.16334-.326211.270239-.90771.755547-.779921Z"/>
  <path class="cls-1" d="M192.708001,171.691153c.07805.376049-.101928.404931-.357.566205-1.360267.860055-5.822226,2.353084-7.554347,2.931818-.764672.255491-1.549633.616135-2.368516.610748,1.878369-2.401713,4.843104-3.523334,7.353323-5.101496.917112-.230053,1.899031,1.125512,2.92654.992726Z"/>
  <path class="cls-1" d="M324.915772,97.259435l-.923189,8.016878c-1.314706-1.875467-2.248056-4.017414-2.793374-6.246067l3.716563-1.77081Z"/>
  <path class="cls-1" d="M372.826374,177.241216l2.87905-4.006836c.758772-.066076,5.269877-.973476,5.333325-.005031-1.853904,2.476797-5.412378,3.085001-8.212375,4.011867Z"/>
  <path class="cls-1" d="M260.510124,36.435731c3.025763-.571545,3.595477,4.915936-.261364,4.49076-2.5144-.277186-2.09961-4.044789.261364-4.49076Z"/>
  <path class="cls-1" d="M256.31367,57.646172c.937093-.9265,2.895051-.63717,3.439671.633457.971716,2.267063-1.380838,4.43487-3.377288,2.966326-1.086566-.799254-.946412-2.725747-.062383-3.599783Z"/>
  <path class="cls-1" d="M313.17394,81.404197l-1.605829.210504c-.46611-3.703713-1.108889-7.580331-.630208-11.289831.362113.155663.503465.963284.618089,1.331207.365516,1.173248,2.039758,9.250789,1.617949,9.748119Z"/>
  <path class="cls-1" d="M275.921829,93.396738c4.116267-.938034,4.205923,5.465936-.001147,4.229913-1.513558-.444678-1.950667-3.785125.001147-4.229913Z"/>
  <path class="cls-1" d="M309.025921,3.748114c2.990532-.674344,4.358845,3.356247,1.71564,4.1824-3.409565,1.065684-4.231926-3.614995-1.71564-4.1824Z"/>
  <path class="cls-1" d="M270.295501,22.755982c-2.813898-2.67984,3.02688-5.764503,3.79133-2.456328.54704,2.36733-2.231763,3.941595-3.79133,2.456328Z"/>
  <path class="cls-1" d="M345.624121,21.843942c3.54972-.808865,4.216897,4.121447,1.195627,4.287086-3.131294.171671-3.210149-3.828042-1.195627-4.287086Z"/>
  <path class="cls-1" d="M290.919746,7.888507c2.430817,2.315655-1.846177,5.378143-3.630437,2.706055-1.584164-2.372426,1.918355-4.337026,3.630437-2.706055Z"/>
  <path class="cls-1" d="M328.47564,9.320833c1.982164-1.750662,5.163509,1.223643,3.337761,3.23407-2.018891,2.223108-5.629729-1.209787-3.337761-3.23407Z"/>
  <path class="cls-1" d="M315.81541,103.472584c3.799797-.767164,3.78487,5.147986-.1134,4.130585-2.204513-.575351-1.973492-3.70925.1134-4.130585Z"/>
  <path class="cls-1" d="M355.492884,40.348394c3.52502-.805899,3.475337,3.634442,1.716096,4.180897-3.549492,1.102541-4.051404-3.646993-1.716096-4.180897Z"/>
  <path class="cls-1" d="M70.986165,42.979874c.327655.442499-2.59835,2.09159-2.952888,2.45013-1.008818-1.173277-2.832436-2.200906-3.187857-3.747792.433503-1.763474,5.144332.988293,6.140745,1.297662Z"/>
  <path class="cls-1" d="M348.091564,168.461959c.601312.478357,1.336119,2.792358,1.285799,3.526367-.078654,1.147314-1.661296,1.882453-2.470175.991456-.185813-.204677-1.234182-3.160017-1.235816-3.448156-.007449-1.31371,1.51331-1.791112,2.420192-1.069667Z"/>
  <path class="cls-1" d="M101.158595,21.225719c3.057141-.601569,2.906433,4.003981.517977,4.232004-2.556012.24402-3.265706-3.691319-.517977-4.232004Z"/>
  <path class="cls-1" d="M126.653519,55.562723c2.305042-.191906,3.502836,3.905289.354461,4.076896-3.210798.17501-2.874081-3.867126-.354461-4.076896Z"/>
  <path class="cls-1" d="M123.56995,70.365999c3.037413-.282858,3.087224,5.338074-.645882,3.843488-2.178381-.872137-1.539079-3.640014.645882-3.843488Z"/>
  <path class="cls-1" d="M356.52784,191.049171c.485505-.086281.822942.064541,1.187405.376983.171183.146749,1.559313,2.270591,1.631698,2.477509.768812,2.197682-1.695893,2.795486-2.922734,1.074235-.711366-.998042-1.826629-3.585693.103631-3.928726Z"/>
  <path class="cls-1" d="M114.311731,82.702709c2.034847-.463036,3.515835,1.732192,2.213673,3.448416-2.118747,2.792467-5.613798-2.674707-2.213673-3.448416Z"/>
  <path class="cls-1" d="M115.750493,32.429152c-3.120259,2.502456-5.030287-4.480734-.464348-3.628347,1.882865.3515,1.747173,2.599518.464348,3.628347Z"/>
  <path class="cls-1" d="M344.801802,175.328721c-1.176758.950347-2.983854-.940531-3.641887-1.891115-.895419-1.293509-.350087-2.590074,1.320917-2.354039,1.298252.183383,3.701422,3.130304,2.32097,4.245154Z"/>
  <path class="cls-1" d="M86.348778,91.956689c3.039761-.691318,3.517198,3.979511.523839,4.23017-2.515209.210619-2.434786-3.795572-.523839-4.23017Z"/>
  <path class="cls-1" d="M363.509773,191.780268c-.172511.213673-.763364.471311-1.059104.480049-1.237956.036579-4.271418-2.233117-3.382186-3.583648.758525-1.152018,1.675954-.610534,2.511735-.088442,1.031332.644247,3.047886,1.806867,1.929554,3.192041Z"/>
  <path class="cls-1" d="M62.485782,35.440467c1.86388,1.9386-1.23698,4.771453-3.020335,2.711539-1.708389-1.973323.787073-5.034329,3.020335-2.711539Z"/>
  <path class="cls-1" d="M351.794629,192.497001c.79168-.232428,1.643711.095051,1.86117.931482.100396.386161.472107,2.921638.425814,3.193633-.178387,1.048105-1.486318,1.523784-2.33783.773476-.928066-.817763-1.197866-4.531984.050846-4.898591Z"/>
  <path class="cls-1" d="M85.935904,19.787278c3.469316-.80753,3.209201,5.32894-.298315,3.912068-1.788229-.72236-1.536889-3.484899.298315-3.912068Z"/>
  <path class="cls-1" d="M56.529098,49.211135c2.097313,1.91869-1.886326,5.242128-3.404201,2.272268-1.346946-2.635421,1.946659-3.605674,3.404201-2.272268Z"/>
  <path class="cls-1" d="M122.947539,40.963812c2.846282-.640431,3.87702,3.197188,1.147084,3.819757-3.256103.742564-3.196032-3.358731-1.147084-3.819757Z"/>
  <path class="cls-1" d="M71.337021,24.515811c2.783631-.826065,4.05726,3.990672.987806,4.085932-2.838968.088107-2.57627-3.614543-.987806-4.085932Z"/>
  <path class="cls-1" d="M309.083498,105.072489c.218552.251735-.553948,3.252918-.904248,3.514276l-4.440309.595053c.370522-.555114.399884-1.711178.827179-2.15207.186604-.192542,4.356001-2.14314,4.517379-1.95726Z"/>
  <path class="cls-1" d="M92.779205,88.210267c-.329748-.032802-.386041-.883918-.40659-1.132148-.089815-1.084931-.149564-3.802948.234996-4.694819.268353-.622362,1.130405-1.655368,1.610707-2.190144l.793432,4.16569c-.750313,1.295666-2.162104,2.220972-2.232545,3.851421Z"/>
  <path class="cls-1" d="M360.076648,50.175536c.045173.541811.021335.339625-.312712.401813-2.201463.409836-4.462376.596983-6.579857,1.377771l-1.140599-1.047819-2.040974-1.143041,3.811138.006694c2.051725-.351496,4.209636.080768,6.263005.404581Z"/>
  <path class="cls-1" d="M331.702052,195.540709c-.795729.796698-2.045251,1.337881-3.087396,1.744474-.728669.28429-3.187222,1.139692-3.818049,1.125926-1.667255-.036384,1.261868-2.8704,1.456741-2.8704h5.448704Z"/>
  <path class="cls-1" d="M348.873504,193.285262l.216969.41231c-.714224,1.010602-.405807,3.181807-1.913686,3.456742-1.490431.271755-2.237801-1.864311-1.384958-2.841842.543097-.6225,2.329523-.550927,3.081675-1.027211Z"/>
  <path class="cls-1" d="M161.401033,169.874875c2.270697-.468765,2.885117,3.18486.520288,3.41681-2.13478.209387-2.588125-2.989924-.520288-3.41681Z"/>
  <path class="cls-1" d="M149.47552,197.015522c2.277863-.469942,2.965526,3.178631.520269,3.416802-2.132255.207684-2.499403-3.00849-.520269-3.416802Z"/>
  <path class="cls-1" d="M145.568902,179.127323c2.277863-.469942,2.965526,3.178631.520269,3.416802-2.132255.207684-2.499403-3.00849-.520269-3.416802Z"/>
  <path class="cls-1" d="M149.480435,173.781042c2.171379-.357239,2.792391,3.463239.153022,3.471757-1.899823.006131-2.223952-3.131044-.153022-3.471757Z"/>
  <path class="cls-1" d="M167.360267,171.938684c2.622745-.588767,2.888782,2.678751,1.146238,3.204241-2.350904.708951-3.188719-2.745735-1.146238-3.204241Z"/>
  <path class="cls-1" d="M161.397535,200.929903c2.622745-.588767,2.888782,2.678751,1.146238,3.204241-2.350904.708951-3.188719-2.745735-1.146238-3.204241Z"/>
  <path class="cls-1" d="M172.294943,194.555947c2.622745-.588767,2.888782,2.678751,1.146238,3.204241-2.350904.708951-3.188719-2.745735-1.146238-3.204241Z"/>
  <path class="cls-1" d="M175.18187,182.005501c2.171379-.357239,2.792391,3.463239.153022,3.471757-1.899823.006131-2.223952-3.131044-.153022-3.471757Z"/>
  <path class="cls-1" d="M172.086388,176.256832c3.090388-.920283,3.035961,4.107496.050443,3.154579-1.478644-.471953-1.320541-2.776358-.050443-3.154579Z"/>
  <path class="cls-1" d="M144.128168,185.506265c2.435315-.532504,2.782131,2.718272,1.145427,3.205664-2.553397.760373-3.115541-2.774881-1.145427-3.205664Z"/>
  <path class="cls-1" d="M174.96989,188.590437c2.435315-.532504,2.782131,2.718272,1.145427,3.205664-2.553397.760373-3.115541-2.774881-1.145427-3.205664Z"/>
  <path class="cls-1" d="M154.609574,170.705468c2.446353-.730934,3.214183,2.54518,1.305374,3.154433-2.491571.795259-2.934103-2.667793-1.305374-3.154433Z"/>
  <path class="cls-1" d="M145.356896,191.883304c3.090388-.920283,3.035961,4.107496.050443,3.154579-1.478644-.471953-1.320541-2.776358-.050443-3.154579Z"/>
  <path class="cls-1" d="M154.815024,200.313375c3.090388-.920283,3.035961,4.107496.050443,3.154579-1.478644-.471953-1.320541-2.776358-.050443-3.154579Z"/>
  <path class="cls-1" d="M167.567876,198.871011c2.435315-.532504,2.782131,2.718272,1.145427,3.205664-2.553397.760373-3.115541-2.774881-1.145427-3.205664Z"/>
  <path class="cls-1" d="M325.686729,65.85106l.156373,2.209539c-1.247403-1.156484-2.774712-2.020406-4.013315-3.183073-.186045-.174639-1.469859-1.335215-1.229747-1.543905l5.086689,2.517439Z"/>
  <path class="cls-1" d="M377.702947,189.823935c2.403775-.522979,2.596511,2.824291.518275,3.005813-1.885568.164694-2.353119-2.606614-.518275-3.005813Z"/>
  <path class="cls-1" d="M362.279754,206.889015c2.052472-.610358,2.946757,2.373169,1.095497,2.955602-2.17576.684525-2.714576-2.474125-1.095497-2.955602Z"/>
  <path class="cls-1" d="M378.938565,178.099741c2.094228-.42822,2.597162,2.627422.725141,3.012077-2.15661.443131-2.59145-2.630461-.725141-3.012077Z"/>
  <path class="cls-1" d="M372.15654,199.896563c2.302729-.201137,2.185704,3.53976-.211778,3.004446-1.589234-.354847-1.646007-2.842174.211778-3.004446Z"/>
  <path class="cls-1" d="M329.997832,200.105137c2.321926-.702829,2.626105,3.351777.180383,3.038203-1.760602-.225732-1.566845-2.618532-.180383-3.038203Z"/>
  <path class="cls-1" d="M345.011102,153.632069c1.82005-.385089,2.520714,2.541357.935889,3.007763-2.105938.619766-3.03635-2.563343-.935889-3.007763Z"/>
  <path class="cls-1" d="M339.66691,206.88066c1.839417-.33901,2.413053,2.641536.726767,3.012356-2.373207.521876-2.520649-2.681738-.726767-3.012356Z"/>
  <path class="cls-1" d="M350.975803,209.353039c2.08186-.420574,2.655021,2.666243.724526,3.01652-1.793163.325359-2.665574-2.624392-.724526-3.01652Z"/>
  <path class="cls-1" d="M365.783049,186.647708c-.871652.801108-2.645763.197082-3.650438.049645l3.189453-2.415214c.862211.452984,1.208502,1.678549.460985,2.365569Z"/>
  <polygon class="cls-1" points="203.194767 164.289766 202.749639 167.544278 200.112724 168.811138 201.949283 164.843995 203.194767 164.289766"/>
  <path class="cls-1" d="M353.497546,167.576891c.204912,1.713794-1.045678,3.081079-2.260339,4.112841.26044-1.788523-.431642-4.525851,2.260339-4.112841Z"/>
  <polygon class="cls-1" points="155.491976 145.166885 155.697562 148.455092 152.831112 147.61923 152.861385 147.049703 155.491976 145.166885"/>
  <path class="cls-1" d="M152.17716,166.111935c-1.029546.650189-2.719072-1.652068-2.64575-2.645626l2.474512.299255c.424698.277997.534066,2.117235.171239,2.346371Z"/>
  <path class="cls-1" d="M341.571182,176.827854l-3.805215.624928c-.906342-.064145-.404837-1.172778.108997-1.543522,1.18046-.851732,2.793818.037604,3.696218.918594Z"/>
  <path class="cls-1" d="M285.390714,75.308115c.516265.496408-.30917,2.61752-.565601,2.416725-.176453-1.158727-1.361312-1.674581-2.058374-2.46464.676695-.110952,2.083819-.471464,2.623976.047916Z"/>
  <path class="cls-1" d="M146.650752,165.93152c-.47161.471456-2.791704-2.505357-3.083146-2.875372,2.251458-.516142,2.520432,1.134598,3.083146,2.875372Z"/>
  <path class="cls-1" d="M335.510386,158.943827c1.33416-.290026.577802,3.533922-1.550042,2.36582-.372396-.278562-.038128-.294573.107459-.515344.187018-.283598,1.298817-1.819223,1.442583-1.850476Z"/>
  <path class="cls-1" d="M328.204455,167.784068c.744372,1.652344-.682467,2.854991-2.258599,2.258651-.196837-.27435,1.982803-2.454791,2.258599-2.258651Z"/>
  <path class="cls-1" d="M56.799481,56.960654c-.972252,1.371775-1.628144,2.652145-3.285668,1.128852.818405-.978986,2.119129-.993809,3.285668-1.128852Z"/>
  <path class="cls-1" d="M90.517729,85.12739c-.041587.644578-.600454,2.879743-1.161542,3.063663-.481544.131024-.853834-.114162-1.086911-.518992l2.248453-2.544671Z"/>
  <path class="cls-1" d="M264.87825,77.928877l-3.495311.616812c.48701-1.3681,2.578902-1.782334,3.495311-.616812Z"/>
  <path class="cls-1" d="M169.474944,156.270599c.107795.12173-.541228,1.79975-.667646,2.106595-.11461.278183-.250575.924863-.564257.974881l-.000977-3.287794,1.23288.206318Z"/>
  <path class="cls-1" d="M324.709068,58.603699c-.614679-.325549-1.408542-.400389-1.996425-.770653-.210227-.132407-.362208.01181-.262041-.462174l2.270166.094191-.0117,1.138636Z"/>
</svg>