<?xml version="1.0" encoding="UTF-8"?>
<svg id="Layer_1" data-name="Layer 1" xmlns="http://www.w3.org/2000/svg" viewBox="0 0 400.168897 227.287576">
  <defs>
    <style>
      .cls-1 {
        fill: #fff;
      }
    </style>
  </defs>
  <path class="cls-1" d="M400.168897,44.623935c-.334159.458152-1.012135.766473-1.506407,1.061623-9.65192,5.763558-19.79062,11.861385-29.608227,17.27119-7.701935,4.244005-15.843993,7.737392-23.169787,12.651294.47895,5.560396.135032,11.155976-.201495,16.715178,4.707057-1.598834,9.326295-3.473183,14.179981-4.631878,6.427505-1.534404,13.45082-2.567997,19.949975-1.122235.093342.123768-.418259.476435-.549026.578937-5.258572,4.121988-11.711332,7.719769-17.198255,11.792897-4.562455,3.386863-8.155742,7.393411-13.760323,9.062554-1.395064.415475-2.61906.671887-4.073349.443402-.486281,2.815593-.988204,5.650097-1.399079,8.476972-.484114,3.330772-1.336,7.831908-1.476235,11.073859-.007277.168237-.086497.5134.12448.51678,1.737263-.222452,3.591885-.171076,5.310063-.435928,13.618984-2.099323,31.701262-8.337538,40.589844,6.538317,4.180701,6.996785,3.842802,21.725751-1.198648,28.329427-2.2996,3.012192-4.380117,6.268083-6.880156,9.157539-11.139219,12.87431-29.793022,20.784937-46.821509,17.413347-18.940044-3.750073-31.555846-21.204899-52.842942-17.767452-1.000892.161624-5.08379,1.244382-5.660748,1.841696-.53865.557654.33482,3.747277.337458,4.758604.021373,8.194824-5.890996,12.351004-7.894825,19.864601-1.234697,4.629642-.963922,10.093137,1.228436,14.396043.817297,1.604096,2.225822,2.984405,2.991069,4.410873.133016.247951.279478.390459.19911.724102-.427529.052496-.776048-.015122-1.177666-.15691-2.240414-.790963-5.998146-5.428287-7.335989-7.467824-.700678-1.068182-1.142349-2.358169-1.969435-3.271528l-.348325,4.394434c.561881,2.772415,1.325427,5.361542,2.933793,7.719189l3.784404,5.774433c-3.114591-2.146839-6.529004-4.291989-9.435883-6.702521-2.193628-1.819068-3.372529-3.208577-4.78449-5.701695-1.83659-3.242891-3.234204-6.995379-4.079236-10.623978-.59176.583098-.889829,1.841001-1.128247,2.673135-.395206,1.379361-.822181,3.210003-.923005,4.628482-.179448,2.524633.277001,5.088957,1.229721,7.400669-.783393.18638-1.316062-1.25493-1.614227-1.881155-2.144621-4.504277-5.102857-10.705795-5.762628-15.620966-.70162-5.226938.552791-10.727607,2.648038-15.498756-.241199-.240174-2.542776,1.66812-2.880597,1.949271-.603614.502358-1.499013,1.295098-2.045628,1.852099-.434139.442387-1.822626,2.430672-2.169241,2.56967-.418584.167859-.311736-.300944-.304336-.508513.105965-2.972538,2.926351-8.28489,4.828264-10.595082,6.293307-7.644273,15.774061-10.69011,25.506845-10.28671.992978.041156,2.819215.563566,3.678962.415739.667533-.114777,3.009799-1.618615,3.968849-2.003288,7.557717-3.031381,16.241772-2.264417,23.949295-.195892,18.537748,4.975112,28.080321,19.979734,49.756739,16.330712,14.078889-2.370049,35.744413-17.200686,34.06312-33.326839-.522516-5.011724-3.826535-6.36586-8.358825-7.062037-10.453265-1.60566-17.167153.714985-26.728412,3.999583-4.103097,1.409545-9.034848,2.981234-12.932971,4.749617-1.626671.737939-4.318964,3.208814-5.66012.590296-1.088241-2.124717.365927-10.105631.923944-12.728485.588467-2.765977,1.430625-5.775362,2.513136-8.384272.670443-1.615803,1.253987-1.816683,1.536517-3.809382,1.383404-9.757207.810552-20.563075,1.244262-30.436866.125058-4.110318-1.200622-7.990499-1.651636-11.918722-.146474-1.275748-.006175-3.029004-.254222-4.269231-.188439-.942194-2.93927-4.348912-3.617172-5.635345-1.898049-3.601866-3.547494-9.505034-.349841-12.81822,2.852196-2.955249,6.851138-4.161591,10.641525-5.39617,8.055084-2.623647,16.568215-4.709626,24.828137-6.630419,12.055792-2.803498,24.357101-5.712285,36.807174-5.238259Z"/>
  <path class="cls-1" d="M88.459474,84.304413c-3.991635-4.702807-8.161449-8.197974-13.840643-10.726961-7.229512-3.219355-10.850422-2.388885-18.020118.556215-19.519797,8.01816-32.849571,27.942533-37.573552,47.960823-2.579553,10.931086-3.55597,20.390211.142292,31.196494,1.82967,5.346277,5.162086,11.44887,11.609785,11.415773,2.433494-.012492,7.975439-.931053,10.436488-1.507447,2.162351-.506437,4.735265-1.438738,6.849464-2.197441,12.79499-4.591619,24.868517-11.739028,35.773826-19.741261.615007-.199849-.860945,1.965754-.964624,2.119535-7.673257,11.381225-16.38893,20.147096-27.214111,28.5066-6.663151,5.14547-12.265087,7.695515-20.526084,9.493192-15.919161,3.46417-28.437089-5.943957-32.351688-21.160135-3.779383-14.690588-3.7012-28.020729.205545-42.650176,4.275238-16.009327,12.193086-30.61428,21.669256-44.061439-7.208387-10.678861-3.245418-25.333103,1.741056-36.156435.580298-1.25956,3.760771-7.712886,4.806402-7.943849.225098-.04972.418764.141819.481812.340255.20321.639569-1.553268,6.889679-1.766579,8.246669-.870582,5.538256-1.147856,16.013094,3.023087,20.30599.964502.992703,3.111397,2.357589,4.534757,2.06018.642263-.1342,4.374346-3.06685,5.357776-3.693428,4.433581-2.824796,9.401872-5.295127,14.383304-7.00029.985169-.337227,5.04116-1.254683,5.486177-1.6101.832402-.664804,3.168879-4.626125,3.793863-5.76439,3.911362-7.123661,5.034358-13.442001,5.724262-21.416494.391474-4.524983,1.923231-1.935581,3.052412.437871,1.641116,3.449499,2.771435,8.339265,3.289668,12.131193.768246,5.621272.741975,11.858812-.359718,17.417249,1.012209.784743,2.17757,1.3654,3.158676,2.195444,4.103957,3.472067,6.208533,12.587365,6.86764,17.805738.211889,1.6776,1.010768,12.863203.22957,13.440625Z"/>
  <path class="cls-1" d="M125.675583,111.445676l-8.180473,11.455251c-.008306,1.907155.62507,3.80062.778396,5.715359.095119,1.187837-.218817,2.480473.207639,3.594061-.737325.15357-.815356-.514048-1.227487-.929321-2.293445-2.310934-4.814503-4.356323-6.896574-6.879396-2.339267-2.834747-4.107363-6.091165-6.266622-9.049352-.463219,6.197521-1.316769,12.346969-2.939068,18.34371-.466294,1.72363-3.794727,12.426268-4.663179,13.000668-.051021.033745-1.168927.134678-1.219325.100009-.317185-.21819-.845363-2.541743-.95159-3.065466-2.344771-11.560241-.684322-26.543715.105291-38.35322.470346-7.034532.3825-14.82808,1.671778-21.76793.077205-.415573.775972-3.098629.894439-3.216211.484775-.48115,1.047013-.17541,1.454644.20108.937526.865904,2.894596,4.703677,3.62424,6.039133,2.260734,4.137787,4.727891,8.762205,6.720723,13.017979,1.735747,3.706759,3.186063,7.565948,4.654292,11.381334,7.864517-11.22532,16.121755-22.824324,26.213633-32.180042,1.44375-1.338434,3.288038-3.042462,4.840267-4.206638.695985-.521991,1.286454-1.009253,2.151365-1.239103.263929.359972-.912414,7.025201-1.090765,8.056824-1.225124,7.086373-3.044908,14.046772-4.398554,21.097269-3.381189,17.610997-5.70181,35.488637-11.115953,52.623735-.367296.674234-1.128675.86844-1.774168.445218-.637139-.417744-3.568285-7.559969-3.978218-8.768993-1.66882-4.921884-.88905-10.980552-.461487-16.18965.527305-6.424277,1.860932-12.760844,1.846757-19.226308Z"/>
  <path class="cls-1" d="M169.472878,132.109567c-.301819,1.020049-2.486254-.894307-2.881496-1.230733-1.833498-1.560657-3.407203-3.527116-5.032163-5.248411-1.531882-1.622699-3.140238-3.17004-4.52586-4.928151-2.023783,4.142423-4.211653,8.249289-6.926006,11.986082-1.007542,1.387063-2.191364,2.613742-3.245966,3.950436-1.707265,2.163935-3.011248,4.493099-5.249871,6.264358l-.109963-.518644c1.339982-9.658819,3.051122-19.112619,5.618147-28.515886,2.135747-7.823452,4.679983-15.620434,8.065953-22.982444l10.891734,21.996864c7.152574-7.959177,14.400897-15.97785,22.863402-22.577782l8.288604-5.588061c-.139908,1.08548-.392864,2.161163-.559115,3.243459-2.225066,14.485244-5.017383,29.034169-9.254468,43.175588-2.00589,6.694727-4.463939,12.824753-6.783999,19.328658-.326104.914179-1.009045,2.904809-2.059308,3.099999-1.357493.252288-1.854746-1.170419-2.265666-2.176525-3.041565-7.447026-2.295665-12.807582-.773217-20.414469.58297-2.912799,2.016954-6.710505,2.347146-9.372723.095286-.76826-.0177-1.571102.020127-2.342278-1.716796,1.370458-3.077322,3.192767-4.72408,4.62913-.517634.4515-3.703934,2.641175-3.703934,2.875634v5.345898Z"/>
  <path class="cls-1" d="M70.734039,86.624115c7.087355-.851015,14.028441,4.581655,14.65115,11.757764,1.112608,12.821707-5.460049,26.471562-12.709845,36.651724-6.033939,8.472856-20.237367,15.175763-28.209773,5.295951-9.998079-12.39013.564649-32.097329,9.553595-42.045939,3.345486-3.702651,11.78221-11.067209,16.714872-11.659499ZM68.883894,94.025218c-1.312192.037725-1.599082.418702-2.427888,1.274374-3.101402,3.201935-5.066433,8.748719-6.577915,12.955176-2.295085,6.387227-6.080426,17.143079-3.705159,23.657208.416289,1.141665,2.154692,3.856646,3.616803,2.985666,6.842505-5.940731,12.098066-13.97022,15.10545-22.523189,1.485544-4.224874,4.376232-15.743301-1.241063-17.887979-.980733-.374443-3.638708-.493786-4.770228-.461256Z"/>
  <path class="cls-1" d="M299.47821,99.37165c-1.303018,4.249908-2.678504,8.542025-3.552978,12.895582,2.760597-.748283,5.566583-1.488747,8.386306-1.994953,2.313819-.415384,5.229564-.892309,7.548925-1.086955,1.877821-.157591,3.457046-.150181,5.240429.511572-3.088894,2.435816-6.658858,4.6682-10.141303,6.513218-3.300517,1.748631-7.491091,3.978456-11.325934,3.441795-.509454-.071295-1.533722-.701412-1.774668-.508541l-3.691044,14.096065c1.610167-.361258,3.221683-.758427,4.860042-.997761,8.548695-1.248806,17.263652-1.804649,25.869346-2.093975.490655-.016496,2.321158-.080832,2.587773.101142.286167.195319-.007617,1.587049-.114621,1.746904-.264465.395085-3.904711,2.51822-4.640848,2.975208-8.079274,5.015549-20.673305,10.466514-29.844956,13.127843-1.66175.482189-5.505744,1.4971-7.101303,1.534306-.39966.009319-.750803-.081341-1.126494-.201524-1.151698-1.22749-2.224913-1.656589-2.227946-3.54715-.005502-3.430201,2.652849-9.352748,4.904091-11.972965l5.188558-29.977191c.07764-1.343853-1.48548-2.907158-2.162762-4.204331-1.391162-2.664441-3.026238-7.59537.879647-8.998063,2.298824-.82556,5.607819-1.259125,8.112966-1.961997,7.718655-2.165633,17.608624-5.985912,25.372785-6.908339.714669-.084907,5.115095-.362055,4.806583.897229-.120882.493419-7.535085,4.682137-8.617102,5.367336-5.838304,3.697168-11.565803,7.597451-17.435494,11.245545Z"/>
  <path class="cls-1" d="M315.045686,62.717672c-2.427431,2.30658-5.192292,4.224352-7.953727,6.128561-9.254628,6.381734-19.118564,11.900154-27.911243,18.968174-4.849416,14.937391-9.157952,30.070312-14.300182,44.915924-1.588521,4.586058-3.058594,8.976002-5.25855,13.246483-.189453.36776-1.090063,3.361189-1.73397,2.889186-.727443-3.123027.469664-6.256429.817624-9.357042.280826-2.502393.320067-5.08291.621932-7.602527,1.447766-12.084251,3.742298-24.123236,4.929021-36.193275.053644-.545606.455836-3.5584-.098248-3.590012-3.274297,1.784669-10.279936,5.399146-12.725165.79331-1.120653-2.110862-.49586-3.635298-.529001-5.844074-.011165-.744132-.469028-1.269664.013886-2.026434.286841-.449506,2.012652-1.446702,2.571872-1.744339,9.001207-4.79077,20.596579-8.208993,30.350997-11.388133,6.274646-2.04502,12.599309-4.054904,18.916256-5.962733,1.626503-.491233,5.042007-1.807862,6.484084-1.964275.649064-.0704,1.143064.265529,1.950971.121436,1.124499-.20056,2.576968-1.343899,3.853444-1.39023Z"/>
  <path class="cls-1" d="M266.314804,66.212128c.768137.788901-3.562909,4.5638-4.21938,5.13382-5.842184,5.072819-12.738607,9.319694-18.811681,14.132125-.040812.522373.070722,1.061163-.017724,1.582063-2.99679,17.649368-4.890398,36.205884-8.469031,53.624772-.206749,1.006344-.659666,3.379037-1.162387,4.155819-.406907.628734-.38421-.27904-.486971-.422997-.183903-.257629-.437105-.093159-.535762-.804081-.346885-2.499644-.542766-6.058091-.641572-8.617047-.554264-14.354815.600085-28.869303.223825-43.196716-.012386-.471626-.287164-3.279811-.423412-3.382198-5.674102,2.055773-11.740487,4.887523-17.785443,5.548453-1.660148.181513-5.693759.53478-6.940969-.604981-.708938-.647862-1.23185-3.013593-1.152847-3.993929.134757-1.672173,2.143789-6.934719,3.487611-7.82053.327827-.216094,1.05456-.439699,1.465923-.590191,4.610157-1.686574,9.82083-3.167262,14.55493-4.566938,13.469801-3.982458,27.163316-7.297148,40.914889-10.177442Z"/>
  <path class="cls-1" d="M217.390073,112.689722l-6.384914,24.552016c.095392.554401,1.167624,1.126513,1.668345,1.425182,2.935179,1.75077,6.380409,3.142588,9.181303,4.856041.69585.425688,1.824451.657457,1.025695,1.590616-.550814.643498-9.375774-.099428-10.926773.649049l-19.044359-1.724373c-1.564334-2.431607,1.632318-8.652822,4.26734-9.103243,2.095707-.358233,3.809082.717216,5.810397.979251.65131-3.90311,1.815266-7.735854,2.442942-11.642768.550471-3.426355.58599-7.065496,1.472813-10.472074l-.096615-.51716c-2.418366-.431503-4.917936-.600156-7.264996-1.371714-3.460563-1.137605-2.956523-2.253791-1.731037-5.333849.565938-1.422391,2.856036-6.15523,4.725641-5.686397,7.099344,3.866606,14.758843,6.550485,22.043135,10.038884.201708.13483.265077.398533.201917.616529-.171619.592338-6.43527,1.282174-7.390835,1.144009Z"/>
  <path class="cls-1" d="M263.087626,8.699195c.814802-.960121,2.164872-.274062,3.009292.262472,4.630653,2.942255,11.587905,15.351107,12.123697,20.776133.355346,3.597961-2.593287,1.728675-4.093976.390957-3.908084-3.483675-8.782431-10.479169-10.487677-15.419369-.508633-1.473541-1.651704-4.713575-.551336-6.010192Z"/>
  <path class="cls-1" d="M321.908109,26.812464c-1.488957,1.467836-6.478448,5.748396-8.405456,5.894817-2.693307.204647-.574406-3.937717-.003165-5.155383,2.253335-4.803242,7.790348-11.810477,12.256308-14.678796,2.227866-1.430874,5.557331-2.829739,4.902957,1.407721-.483006,3.127752-6.408436,10.222656-8.750645,12.53164Z"/>
  <path class="cls-1" d="M250.144551,31.596387c-1.095937-1.059454-3.458223-3.678495-3.570634-5.174239-.257072-3.420611,4.974197-1.158555,6.621388-.446659,4.824871,2.08525,11.332817,6.979131,14.553702,11.147733,1.277442,1.653317,3.16772,4.421511-.661224,3.949829-4.65957-.574006-13.528393-6.175503-16.943233-9.476664Z"/>
  <path class="cls-1" d="M344.377031,32.83119c-3.720863,4.39087-15.729323,9.418877-21.41699,9.730969-6.250224.342961,1.042233-5.333035,2.588707-6.456396,3.869715-2.810967,13.631653-7.75773,18.375154-6.894573,1.943895.353723,1.392305,2.511709.453129,3.620001Z"/>
  <path class="cls-1" d="M308.416872,1.073184c2.336223-.334262,2.168441,3.490245,2.103453,4.994452-.248522,5.752295-3.039098,13.863437-6.202101,18.676953-1.750606,2.664104-3.7444,4.143485-4.08397-.368111-.422489-5.613288,2.577093-17.928248,6.482119-22.11273.477595-.511773.963194-1.085072,1.700499-1.190564Z"/>
  <path class="cls-1" d="M242.217382,45.505174c6.215406-.503191,14.638963,1.316257,20.1896,4.156476,4.232126,2.165547,3.203474,3.804235-1.131818,4.209509-5.713021.534068-14.614707-.605838-19.812794-3.209211-4.217224-2.112125-4.539885-4.728106.755012-5.156774Z"/>
  <path class="cls-1" d="M285.175998.044756c2.365437-.514965,3.562419,3.548828,4.10923,5.261671,1.649141,5.165803,2.254019,12.652599,1.474515,18.010759-.811425,5.577581-2.826081,4.015276-4.535209.059573-2.238926-5.181899-3.418826-12.49355-3.046532-18.127499.087284-1.320882.437586-4.864797,1.997995-5.204504Z"/>
  <path class="cls-1" d="M139.658103,189.373364c.780365.870103-5.052477,12.653754-5.927933,14.322687-2.497228,4.760613-5.627818,9.858308-8.912524,14.115962-.199226.258238-2.166211,2.946799-2.42771,2.607665.170707-1.684264.987441-3.281974,1.673446-4.80121,3.361183-7.443721,7.991698-15.432725,12.507379-22.240961.696153-1.049582,1.609359-2.69062,2.385213-3.57748.12685-.144999.508979-.642026.702129-.426664Z"/>
  <path class="cls-1" d="M126.704694,173.335783c.071772.417202-.265213.585277-.546856.787522-2.676532,1.921993-12.762202,4.412934-16.34954,5.239652-5.672049,1.30715-11.624141,2.188055-17.438694,2.400702-.444473-.388432,1.542282-1.155671,1.741845-1.237409,3.220357-1.319012,7.731008-2.366581,11.167786-3.225018,7.048719-1.760626,14.213692-3.044423,21.425458-3.965449Z"/>
  <path class="cls-1" d="M126.294399,163.257645c-5.136787.46178-10.777791-.395468-15.87963-1.286798-5.323291-.930019-12.74537-2.641937-17.68807-4.723588-.888359-.374138-1.890706-.862828-.264457-.987406,4.305371-.329809,14.302393,1.777811,18.869302,2.738104,4.101292.862387,9.150422,2.049194,13.111571,3.337347.609007.198047,1.522614.336521,1.851284.92234Z"/>
  <path class="cls-1" d="M175.555251,190.075189c5.589147,5.164897,11.387397,11.436183,15.674632,17.737216.272325.400242,1.892393,2.6907,1.680686,2.943475-1.993082-.99529-3.631321-2.600346-5.246499-4.106726-5.981609-5.578691-12.720529-13.038187-17.657009-19.558669-.501335-.662201-1.184784-1.423149-1.355579-2.240525.622784-.626268,6.231459,4.603951,6.903769,5.225229Z"/>
  <path class="cls-1" d="M131.433706,182.793846c.451287.454167-3.723524,4.487853-4.208569,4.939045-4.700612,4.372539-10.649148,8.871323-16.078265,12.296119-.872325.55028-7.412814,4.573997-7.879853,4.14631.075099-.461919.591532-1.008059.900519-1.361183,4.336432-4.95587,14.915106-12.319417,20.622834-16.076731.638358-.420222,6.370499-4.218136,6.643334-3.94356Z"/>
  <path class="cls-1" d="M206.893164,189.988092c-1.286464-.133114-2.575596-.439225-3.809931-.814217-8.125771-2.468615-20.124518-7.721744-27.445759-12.031645-.418467-.246345-1.244695-.565121-1.2289-1.13352.851726-.719532,11.356463,3.121208,13.003231,3.751993,5.801769,2.222334,13.226018,5.514463,18.313084,9.033243.385994.266996,1.15004.673504,1.168276,1.194146Z"/>
  <path class="cls-1" d="M171.526941,223.915033c-.976949-.804476-1.559942-2.219606-2.08972-3.356872-3.412275-7.325067-6.455385-16.963927-8.49926-24.8098-.452804-1.738191-1.016686-3.57396-1.126742-5.347909,1.494085,1.353854,2.475416,3.567589,3.324918,5.41146,3.351906,7.275418,6.335157,16.126821,7.880999,23.98878.268506,1.365591.644845,2.705254.509806,4.114341Z"/>
  <path class="cls-1" d="M211.212196,164.90666c.299881.301843-.084206.355658-.263216.456843-.559427.316212-1.837094.4795-2.515749.566136-9.215948,1.176503-20.528834,1.054595-29.808631.412229-4.830364-.334367-1.494973-1.216685.848203-1.615112,7.030055-1.195371,16.303748-1.334264,23.409956-.848231,1.009554.069049,8.033499.730262,8.329436,1.028135Z"/>
  <path class="cls-1" d="M146.852693,227.204327c-.468296.45973-.607003-1.125217-.622617-1.328069-.659444-8.567689.906531-24.04165,2.921034-32.460498.079257-.331224.016051-1.242597.477236-1.162875.545575.926854.666944,2.496418.731243,3.587662.404841,6.870803-.377549,15.567807-1.507729,22.36036-.191182,1.149033-1.608465,8.619864-1.999167,9.003419Z"/>
  <path class="cls-1" d="M203.398753,175.594383c-1.873825.229753-3.759553.133957-5.652193-.00009-6.343737-.449298-15.467504-1.490238-21.440546-3.438443-.793791-.258908-4.448996-1.211594-2.709002-2.407952.674946-.464069,2.715901-.365544,3.584307-.317915,6.791797.372509,16.154599,2.852534,22.766393,4.785604,1.115056.326005,2.659494.552917,3.451041,1.378797Z"/>
  <path class="cls-1" d="M145.776938,189.013393c.955055.992744-.569538,7.016331-.950597,8.507466-1.50735,5.898472-4.12085,12.976287-6.452161,18.63243-.198141.480722-.364651.994252-.608347,1.452654-.163495.30754-.32936.882436-.778494.75657.408348-5.27611,1.651761-10.732743,2.937372-15.873933.908112-3.631562,2.216594-9.012605,4.014682-12.228611.304716-.545005,1.105704-2.007298,1.837545-1.246576Z"/>
  <path class="cls-1" d="M179.95902,211.576343c-.520381.409003-2.509054-2.134715-2.872833-2.573765-3.996951-4.82398-10.223653-13.670015-12.789893-19.285498-.41996-.918962-2.389014-4.818898.027452-3.93431,2.373382.868817,8.491697,11.860013,9.950527,14.517478,2.02189,3.683159,3.960733,7.450766,5.684747,11.276094Z"/>
  <path class="cls-1" d="M130.993387,177.269639c1.069358.672167-1.451642,2.52847-1.917818,2.855449-5.453022,3.824794-17.773534,8.933434-24.258216,10.901256-1.046688.317625-1.6741.346902-.619714-.619539,3.352636-3.072995,14.827424-8.990304,19.285423-10.939442,1.19498-.522472,6.583963-2.780008,7.510324-2.197725Z"/>
  <path class="cls-1" d="M159.39586,219.597196c-1.052183-.904872-1.432884-2.920909-1.788069-4.275357-1.716192-6.544447-4.130179-18.261411-3.564123-24.827362.230238-2.670632,1.795459-.769802,2.328257.773015,2.004236,5.803649,2.464372,15.203644,2.818248,21.443908.129651,2.28627.203458,4.595804.205688,6.885797Z"/>
  <path class="cls-1" d="M195.378793,196.156573c-.511407.490938-10.008669-5.103826-11.165198-5.795646-4.137578-2.475044-10.130276-5.97694-13.410769-9.412109-1.783798-1.867904-.874493-2.693148,1.41897-1.83038,5.544284,2.085681,17.203993,11.21695,21.81611,15.399757.215977.195873,1.580636,1.408224,1.340886,1.638378Z"/>
  <path class="cls-1" d="M117.45524,208.494201c-.322686-.407987,1.849093-3.698921,2.214141-4.260523,3.538768-5.444153,10.153073-14.404067,15.052617-18.46205,1.82148-1.508617,3.431322-1.739632,2.138617,1.110374-1.969176,4.341412-9.307523,11.732864-12.822101,15.346853-2.104941,2.16448-4.235119,4.381397-6.583274,6.265346Z"/>
  <path class="cls-1" d="M97.920794,170.04388c-.120278-.5387.203417-.415392.5696-.549732,3.641374-1.335899,13.203443-1.885507,17.41222-2.130685,2.399894-.139803,10.14487-.348543,12.035622.523628,1.96614.906946-.717604,1.914141-1.597524,2.101234-6.088106,1.294486-12.681626.488969-18.868175.681875l-9.551744-.62632Z"/>
  <path class="cls-1" d="M202.165046,153.39241c-1.088982,1.155403-3.102195,1.712355-4.622311,2.263562-6.03229,2.187356-16.596081,5.667964-22.827994,5.955699-4.283003.197752-1.182111-2.739514.543919-2.559092,1.8244.190705,2.488761.946915,4.751037.454028,2.797555-.609509,3.793955-2.958488,4.872182-3.348043,3.079869-1.112734,10.439539-2.084137,13.924767-2.528465,1.117268-.142439,2.223041-.331692,3.358399-.237689Z"/>
  <path class="cls-1" d="M103.444316,35.60176c.656933.417533-.342714,2.577262-.619056,3.130701-1.743851,3.492478-6.474072,8.399406-9.90808,10.241857-1.346494.722436-2.609201,1.375689-1.612832-.790573,1.437707-3.1258,7.378159-10.358526,10.335855-12.075716.422633-.245374,1.34449-.798395,1.804112-.506269Z"/>
  <path class="cls-1" d="M95.658982,62.511113c.523363-.505176,7.857309,1.83443,8.948129,2.256039,1.928271.745289,5.22172,2.402345,6.870795,3.615388,1.94464,1.430457,1.629814,2.472915-.88451,2.327314-3.327752-.192704-7.594047-2.253534-10.394179-4.002146-.572145-.35729-5.389563-3.376783-4.540235-4.196596Z"/>
  <path class="cls-1" d="M91.891134,29.847407c1.124913-.099733.948636,3.032821.897939,3.783489-.2286,3.384911-1.858436,7.545935-3.469213,10.512417-.362537.667665-2.015933,3.720719-2.806218,3.563209-.598014-.783319-.216687-2.37826-.080065-3.365328.571885-4.131753,2.013055-9.5208,4.183741-13.087604.274407-.450898.698442-1.355171,1.273816-1.406183Z"/>
  <path class="cls-1" d="M109.795738,45.086822c2.914162-.368532,1.108441,1.814466-.059102,2.818738-3.13653,2.697912-9.874059,5.312864-13.980187,5.556897-2.532653.150519-.922621-1.180819.126254-1.933855,3.231983-2.32039,10.018301-5.949242,13.913035-6.44178Z"/>
  <path class="cls-1" d="M114.539702,57.195983c.862406,1.415344-2.968474,2.224715-3.829439,2.375-3.814604.665856-7.830188.47623-11.594928-.415074-2.993648-.708748-4.721266-1.59245-.415693-2.34303,4.165969-.726243,8.469311-1.034712,12.658731-.44188.528912.074845,2.985328.503317,3.181328.824984Z"/>
  <path class="cls-1" d="M120.482336,153.856558c.15481.155749,1.803293,3.631113,1.902443,3.958564.087154.287832-.006976.359161-.290693.291952-2.243016-.531345-5.987023-2.477576-8.210037-3.512126-3.343721-1.556106-6.927761-3.305686-10.181392-5.033927-.351099-.186494-1.246478-.574932-1.226662-.964069.005646-.110864.160287-.542652.30327-.566874.242422-.041069,2.477649.603595,2.953586.734486,3.060549.841709,6.163507,1.916615,9.158326,2.972752.943294.332657,5.163311,1.688798,5.591158,2.119242Z"/>
  <path class="cls-1" d="M117.862445,147.01625c-4.061529-2.453107-7.811301-5.368546-11.429705-8.427142-.497364-.595967.276098-1.556995.331238-2.264589.487877-.361224,9.040312,5.859013,10.191779,6.563038.535005,1.237453.427113,2.791279.906687,4.128692Z"/>
  <path class="cls-1" d="M102.853739,27.350574c.717729.716777-2.635714,6.926964-3.282958,7.921791-.724781,1.114003-4.061071,5.402824-5.029183,5.868131-.249767.120046-.420499.26334-.732666.190566-.674849-.706197,3.204644-7.662858,3.899898-8.743095.727327-1.130069,3.242143-4.688809,4.333441-5.124581.27618-.110283.516288-.150804.811469-.112813Z"/>
  <path class="cls-1" d="M114.162342,37.426553c.670894.639607-3.056073,3.867591-3.603369,4.310552-2.095665,1.696151-4.868991,3.31866-7.360082,4.359772-.892476.372996-1.817414.849513-2.810434.785655-.090041-.339979.08422-.482667.204308-.725314.493791-.997742,4.882503-4.497222,6.019011-5.283139.974291-.67374,6.739894-4.220394,7.550567-3.447527Z"/>
  <path class="cls-1" d="M88.25337,22.62204c.042119.030768.314535.817934.360114.979076.922452,3.261249-.529465,10.503497-1.792042,13.725938-.111063.283464-.772781,2.074266-1.235995,1.742285-.699727-.501488-.121542-8.273789.057677-9.500171.21265-1.455153,1.076588-5.652763,1.995131-6.640484.141012-.151632.404732-.460327.615115-.306644Z"/>
  <path class="cls-1" d="M115.97199,51.056741c.741976-.046989,4.180734-.340394,4.359834.459899.184136.822794-3.589177,2.048668-4.315718,2.257166-2.722807.781375-8.018434,1.489083-10.776944,1.108777-2.202663-.303674-.442296-1.125117.645752-1.576229,2.78937-1.156492,7.077053-2.058989,10.087076-2.249613Z"/>
  <path class="cls-1" d="M106.642516,77.0219c-1.24082-1.027313-3.167658-2.896122-4.204331-4.123089-.502536-.594783-1.247365-1.358798-1.227277-2.163192.463775-.457785,4.076816,1.781851,4.710634,2.175231,2.422201,1.503342,5.751639,4.03075,7.524072,6.251905.39947.500603,1.389622,1.73408.405572,1.865434-1.336789.178439-6.035264-3.03479-7.20867-4.006289Z"/>
  <path class="cls-1" d="M104.630518,62.743721c1.233289-.375395,5.058153.189251,6.496031.438669,2.309993.400698,5.317426,1.229089,7.428112,2.235628.693606.330765,2.983601,1.481905,1.257481,1.815593-3.622742.700336-11.237101-1.549587-14.467007-3.410101-.414887-.238986-1.478699-.847213-.714617-1.079788Z"/>
  <path class="cls-1" d="M335.949297,161.644156c.73495-.204164.716761.563119.688281,1.093004-.145533,2.707635-2.1422,7.012643-3.74155,9.223057-3.066347,4.237908-3.213052.825618-2.057891-2.263502.515809-1.379372,3.893422-7.714281,5.11116-8.052559Z"/>
  <path class="cls-1" d="M329.294493,220.354259c-1.261944-1.117045-2.567348-7.130474-2.707915-8.905353-.078193-.987306-.106998-5.720525,1.619062-3.674602,1.621005,1.921401,2.494471,8.784787,2.234603,11.282519-.070425.676888-.198092,2.136281-1.14575,1.297435Z"/>
  <path class="cls-1" d="M334.09422,204.198925c.705254-.239287,1.331289.387422,1.825919.795149,1.94072,1.599745,5.016406,6.430954,5.742074,8.855804.828264,2.76768-.92794,1.333884-2.15164.30167-1.910032-1.611149-4.3814-5.17764-5.236816-7.511116-.193591-.528094-.949226-2.180357-.179538-2.441506Z"/>
  <path class="cls-1" d="M304.971865,215.279353c-.521358-.520521,1.457281-4.337294,1.886042-5.000864.78306-1.211898,4.263937-5.398248,5.503118-5.806828.655305-.216065,1.271876-.203104,1.237343.602186-.096977,2.26146-4.482803,7.493388-6.269122,8.965765-.343519.283146-1.986386,1.61014-2.357381,1.23974Z"/>
  <path class="cls-1" d="M319.913802,207.291714c.686771-.059277.877397,1.624641.892148,2.136525.062256,2.16038-1.711923,8.600968-2.997291,10.361685-.40575.555802-.986688,1.206677-1.278634.276226-.453707-1.445995-.041894-4.483892.261249-6.022637.240768-1.222127,1.783032-6.636183,3.122528-6.751798Z"/>
  <path class="cls-1" d="M339.791167,200.608966c-.913169-.985231-1.709995-2.403933.387204-2.137609,2.170389.275618,6.575664,3.199329,8.273753,4.682525,4.813561,4.204404-.363931,2.735103-3.049205,1.404313-1.551966-.769136-4.458591-2.705066-5.611752-3.949228Z"/>
  <path class="cls-1" d="M306.565499,198.884494c2.841394-.389754,2.034161.879098.569568,2.213028-1.972402,1.796434-7.128458,4.230194-9.766962,4.639694-.873058.1355-1.078412-.304211-.632162-1.058245,1.193672-2.016966,7.515533-5.477062,9.829557-5.794477Z"/>
  <path class="cls-1" d="M305.960975,192.626846c-.458184.794412-4.829078,1.425721-5.813495,1.483089-1.532365.0893-5.744042.158216-7.01786-.400953-1.605508-.704771.858341-1.580559,1.516135-1.810989,2.506999-.878218,5.934157-1.095656,8.584762-.888108.682332.053428,3.435934.393788,2.730458,1.61696Z"/>
  <path class="cls-1" d="M323.601712,158.953208c.931628-.161265,1.465943,4.063419,1.516455,4.823192.120202,1.808031-.09899,5.086347-.58357,6.813177-.239798.854534-.597643,2.431033-1.685133,1.417135-1.046819-.97598-.91987-5.919741-.822621-7.420283.056892-.877835.720828-5.485386,1.574869-5.633221Z"/>
  <path class="cls-1" d="M105.936847,80.603869c-1.932796-2.373817-3.004055-5.450133-6.362557-6.280442-.841614-.208069-2.264314-.088754-2.90514-.590256-.314517-.246137-2.189736-3.170719-2.349407-3.613327-.316595-.877604-.336714-2.144798-.510777-3.085314.179842-.205698,2.690778,1.825193,2.974672,2.060699,2.884309,2.392693,6.590726,5.990537,8.419233,9.263354.395528.707949.867222,1.382977.733975,2.245285Z"/>
  <path class="cls-1" d="M336.635731,177.033283c-.465797-.648472,4.015907-4.459977,4.63131-4.926512.697448-.528733,1.419291-1.080439,2.169627-1.53138,6.943068-4.172675,1.381392,2.510437-.630891,4.303785-1.845324,1.644553-3.512864,3.062754-6.170047,2.154107Z"/>
  <path class="cls-1" d="M316.072418,103.220474c-2.117433-.578453-4.322702-.181411-6.457767.17091-.345207-.079195-1.284398-2.415249-1.134775-2.621779l6.151984-3.716577c.591552,2.013657,1.401128,4.030918,1.440558,6.167446Z"/>
  <path class="cls-1" d="M167.211472,138.177076c.157745.183101-.800927,1.843203-.993023,2.192305-.594744,1.08085-3.829238,6.371395-4.706138,6.617611-1.857855.521648-.741946-2.579748-.474352-3.368034.340932-1.004323,2.452664-5.877397,2.988288-6.474511.40712-.453857,1.271683.404128,1.80904.658097.429093.202801.897527.354729,1.376185.374531Z"/>
  <path class="cls-1" d="M275.234269,36.318267c2.442885,2.395531,6.033532,5.862163,7.820593,8.733198,1.797619,2.887997-1.912102-.367397-2.660008-1.040999-2.814686-2.535049-6.15503-6.006075-8.522234-8.954742-.576027-.717518-2.460924-3.001625-2.675297-3.699709-.08122-.264485.043278-.403203.302121-.302121.377856.147559,2.304116,1.926601,2.782048,2.359288,1.012173.916352,1.976453,1.947686,2.952777,2.905084Z"/>
  <path class="cls-1" d="M310.52027,24.266367c.060331.517875-.137463.967561-.31003,1.435569-1.655294,4.489219-5.868757,12.533878-8.854855,16.229742-.325988.403472-1.180865,1.346347-.965181.274205.432422-2.149522,2.811734-6.534717,3.926641-8.621378,1.708292-3.197243,3.694279-6.736604,6.203425-9.318137Z"/>
  <path class="cls-1" d="M328.820744,46.473467c.072299.52827-.41225.609982-.765491.774482-3.790948,1.765396-13.243679,3.943919-17.456732,4.338107-.510919.047803-3.002929.188522-1.869116-.432625.664658-.364125,2.056216-.816157,2.828852-1.074997,5.47308-1.833533,11.51928-3.037872,17.262486-3.604967Z"/>
  <path class="cls-1" d="M280.501046,51.818208c-2.402656-.017397-19.211924-7.062681-19.321418-8.121484-.046948-.453989,1.400605-.007004,1.597636.04335,4.67599,1.195009,11.612745,4.000383,15.807822,6.398002.243524.139181,2.311272,1.273193,1.91596,1.680132Z"/>
  <path class="cls-1" d="M288.519878,42.771315c-.919239-.845296-1.370628-2.217217-1.88524-3.355741-2.316844-5.125774-4.391711-11.024003-5.101442-16.588457.596001.495544.936846,1.427706,1.267832,2.122646,1.915978,4.022798,5.002355,11.636423,5.671768,15.917443.098988.633046.040393,1.270015.047083,1.904109Z"/>
  <path class="cls-1" d="M322.035586,33.519955c.240245.219259-1.411723,1.74081-1.641016,1.955082-3.596372,3.360768-8.911447,7.655189-13.178424,10.055673-3.806667,2.141526-.472996-1.02147.630394-2.042556,2.857648-2.644492,6.821147-5.680124,10.095223-7.792976.525357-.339027,3.774175-2.466949,4.093824-2.175224Z"/>
  <path class="cls-1" d="M339.306928,49.764259l-8.627931,2.985994c-1.160567.102392-3.71507,2.3919-4.460626,2.51242-1.027276.16606-2.979291-1.331513-1.703232-2.508776,1.536133-1.417201,8.756449-2.850241,10.980402-3.000336,1.245364-.08405,2.559697.077193,3.811388.010698Z"/>
  <path class="cls-1" d="M296.334084,20.566407c-.046848,4.073836.139134,8.169211-.20648,12.23087-.179937,2.11463-.543341,5.334263-1.086959,7.343113-.129031.476813-.256166,1.181123-.759562,1.397277.088824-.803999-.176183-1.561966-.217437-2.354679-.217226-4.174154.439667-14.327182,1.807816-18.165934.117491-.329655-.109749-.550559.462621-.450646Z"/>
  <path class="cls-1" d="M279.88576,57.577881c-.558402.638665-1.953537.687584-2.800525.794718-4.393873.555774-10.361551.691538-14.772727.379924-1.090233-.077016-2.481722-.075843-3.397616-.664115.952855-.254319,1.999245-.404024,2.982331-.511018,5.238884-.570175,11.204376-.943706,16.424739-.391022.533725.056506,1.034288.321345,1.563798.391513Z"/>
  <path class="cls-1" d="M293.868819,180.12248c.137198-.205509,1.596689-.224701,1.949345-.204484,2.52618.144818,6.031873,2.003302,8.262865,3.250588.609278.34063,3.805946,1.86805,1.825412,2.100349-2.702406.316969-8.552474-2.008083-10.786314-3.625631-.342303-.247865-1.589133-1.014795-1.251309-1.520822Z"/>
  <path class="cls-1" d="M69.340441,77.932914c.283013.328611-1.834142,2.856224-2.275949,3.171137-.755911.538802-1.802594.683947-2.592279,1.108728-1.382782.743815-2.569631,1.796588-3.971396,2.503269-.162924-.178974.401862-.805246.537385-1.00262.933494-1.359533,4.805059-6.118453,6.347598-6.21132.687784-.041407,1.274597.438885,1.95464.430807Z"/>
  <path class="cls-1" d="M157.749857,142.903437c-.297367.291252-.372507-.018118-.408568-.304109-.314468-2.493965.933115-7.365573,1.620294-9.901465.053719-.198238-.088153-.659437.330714-.483727.280834.117806,1.802164,1.675318,1.74912,2.13317l-3.29156,8.556131Z"/>
  <path class="cls-1" d="M242.947209,57.646172c.937093-.9265,2.895051-.63717,3.439671.633457.971716,2.267063-1.380838,4.43487-3.377288,2.966326-1.086566-.799254-.946412-2.725747-.062383-3.599783Z"/>
  <path class="cls-1" d="M247.143662,36.435731c3.025763-.571545,3.595477,4.915936-.261364,4.49076-2.5144-.277186-2.09961-4.044789.261364-4.49076Z"/>
  <path class="cls-1" d="M321.983197,95.661387c3.077587-.542011,3.685828,3.698034,1.137179,4.222096-3.7351.768026-3.723292-3.766641-1.137179-4.222096Z"/>
  <path class="cls-1" d="M295.659459,3.748114c2.990532-.674344,4.358845,3.356247,1.71564,4.1824-3.409565,1.065684-4.231926-3.614995-1.71564-4.1824Z"/>
  <path class="cls-1" d="M332.257659,21.843942c3.54972-.808865,4.216897,4.121447,1.195627,4.287086-3.131294.171671-3.210149-3.828042-1.195627-4.287086Z"/>
  <path class="cls-1" d="M256.929039,22.755982c-2.813898-2.67984,3.02688-5.764503,3.79133-2.456328.54704,2.36733-2.231763,3.941595-3.79133,2.456328Z"/>
  <path class="cls-1" d="M315.109178,9.320833c1.982164-1.750662,5.163509,1.223643,3.337761,3.23407-2.018891,2.223108-5.629729-1.209787-3.337761-3.23407Z"/>
  <path class="cls-1" d="M277.553284,7.888507c2.430817,2.315655-1.846177,5.378143-3.630437,2.706055-1.584164-2.372426,1.918355-4.337026,3.630437-2.706055Z"/>
  <path class="cls-1" d="M342.126422,40.348394c3.52502-.805899,3.475337,3.634442,1.716096,4.180897-3.549492,1.102541-4.051404-3.646993-1.716096-4.180897Z"/>
  <path class="cls-1" d="M281.9423,63.334562c.329443.259721-1.961981,1.662795-2.198367,1.808968-2.421339,1.497271-5.097697,2.735877-7.668892,3.946045.174297-.649806.093745-1.956985.626455-2.352804,1.120278-.45984,8.731794-3.803495,9.240804-3.402209Z"/>
  <path class="cls-1" d="M319.715495,199.278036c.921937-.144425,1.788573.738206,1.664125,1.664193-.019643.14616-.829318,2.679158-.898953,2.809156-.535558.999821-1.952778,1.123356-2.532484.093491-.622646-1.106149.522491-4.371836,1.767312-4.566841Z"/>
  <path class="cls-1" d="M94.988535,22.665c3.057141-.601569,2.906433,4.003981.517977,4.232004-2.556012.24402-3.265706-3.691319-.517977-4.232004Z"/>
  <path class="cls-1" d="M313.34708,190.964913c-.67808.7224-1.641287.288063-2.310945.297519-.911016.012864-2.893233.477385-2.736414-1.324029.193469-2.222422,4.938607-1.709929,5.267606-.628717.123313.405253.070418,1.345564-.220247,1.655227Z"/>
  <path class="cls-1" d="M120.483459,57.002004c2.305042-.191906,3.502836,3.905289.354461,4.076896-3.210798.17501-2.874081-3.867126-.354461-4.076896Z"/>
  <path class="cls-1" d="M309.964846,196.712184c-.995806-.805654-.252336-2.274729.687221-2.789464.262667-.143902,2.222817-.832129,2.460876-.841331,1.459832-.056426,2.113303,1.877735.684854,2.753328-.155373.095239-2.266824,1.07831-2.395696,1.106629-.45386.099732-1.063837.07295-1.437254-.229162Z"/>
  <path class="cls-1" d="M117.39989,71.80528c3.037413-.282858,3.087224,5.338074-.645882,3.843488-2.178381-.872137-1.539079-3.640014.645882-3.843488Z"/>
  <path class="cls-1" d="M109.580433,33.868432c-3.120259,2.502456-5.030287-4.480734-.464348-3.628347,1.882865.3515,1.747173,2.599518.464348,3.628347Z"/>
  <path class="cls-1" d="M328.768575,198.451184c.485505-.086281.822942.064541,1.187405.376983.171183.146749,1.559313,2.270591,1.631698,2.477509.768812,2.197682-1.695893,2.795486-2.922734,1.074235-.711366-.998042-1.826629-3.585693.103631-3.928726Z"/>
  <path class="cls-1" d="M313.884839,198.286383c.102361-.116124,1.287434-1.161639,1.370162-1.199686,1.142773-.525572,2.264242.37647,2.0551,1.630605-.088195.528868-2.414603,3.038142-3.174583,2.989551-2.070728-.132396-1.150939-2.399163-.25068-3.420469Z"/>
  <path class="cls-1" d="M56.315722,36.879747c1.86388,1.9386-1.23698,4.771453-3.020335,2.711539-1.708389-1.973323.787073-5.034329,3.020335-2.711539Z"/>
  <path class="cls-1" d="M324.035363,199.899015c.79168-.232428,1.643711.095051,1.86117.931482.100396.386161.472107,2.921638.425814,3.193633-.178387,1.048105-1.486318,1.523784-2.33783.773476-.928066-.817763-1.197866-4.531984.050846-4.898591Z"/>
  <path class="cls-1" d="M116.777479,42.403092c2.846282-.640431,3.87702,3.197188,1.147084,3.819757-3.256103.742564-3.196032-3.358731-1.147084-3.819757Z"/>
  <path class="cls-1" d="M335.750508,199.182282c-.172232.213578-.763511.471314-1.059104.480049-1.246212.036824-4.245654-2.21152-3.382007-3.582346.872493-1.384866,5.992369,1.178642,4.441111,3.102297Z"/>
  <path class="cls-1" d="M315.043725,167.577529c-.746923-.740453-3.156086-1.479151-3.705945-2.151882-.581083-.710932-.595165-2.893226-.608913-3.811465.290238-.022298.54527-.021557.81725.107871.852688.405769,3.956454,5.227652,3.497608,5.855476Z"/>
  <path class="cls-1" d="M153.844361,138.175165c-.410744,1.49046-.469211,5.146153-1.426591,6.280528-1.082813,1.282998-1.94478-1.756359-1.613178-2.847197.19331-.635913,2.449753-2.803167,3.039769-3.433331Z"/>
  <path class="cls-1" d="M62.346421,37.013596c-.259521.192259-.45372-.19354-.580995-.340784-.580964-.672117-2.249117-3.295233-2.288417-4.101312-.011886-.243789.064331-.669395.299181-.689037.383284-.032056,3.119338,1.884398,3.292518,2.256186.220929.474296-.525861,2.729429-.722288,2.874947Z"/>
  <path class="cls-1" d="M140.221288,177.071209c2.277863-.469942,2.965526,3.178631.520269,3.416802-2.132255.207684-2.499403-3.00849-.520269-3.416802Z"/>
  <path class="cls-1" d="M136.31467,159.18301c2.277863-.469942,2.965526,3.178631.520269,3.416802-2.132255.207684-2.499403-3.00849-.520269-3.416802Z"/>
  <path class="cls-1" d="M152.146801,149.930561c2.270697-.468765,2.885117,3.18486.520288,3.41681-2.13478.209387-2.588125-2.989924-.520288-3.41681Z"/>
  <path class="cls-1" d="M140.226203,153.836728c2.171379-.357239,2.792391,3.463239.153022,3.471757-1.899823.006131-2.223952-3.131044-.153022-3.471757Z"/>
  <path class="cls-1" d="M163.040711,174.611634c2.622745-.588767,2.888782,2.678751,1.146238,3.204241-2.350904.708951-3.188719-2.745735-1.146238-3.204241Z"/>
  <path class="cls-1" d="M152.143302,180.98559c2.622745-.588767,2.888782,2.678751,1.146238,3.204241-2.350904.708951-3.188719-2.745735-1.146238-3.204241Z"/>
  <path class="cls-1" d="M158.106035,151.994371c2.622745-.588767,2.888782,2.678751,1.146238,3.204241-2.350904.708951-3.188719-2.745735-1.146238-3.204241Z"/>
  <path class="cls-1" d="M165.927638,162.061188c2.171379-.357239,2.792391,3.463239.153022,3.471757-1.899823.006131-2.223952-3.131044-.153022-3.471757Z"/>
  <path class="cls-1" d="M165.715658,168.646123c2.435315-.532504,2.782131,2.718272,1.145427,3.205664-2.553397.760373-3.115541-2.774881-1.145427-3.205664Z"/>
  <path class="cls-1" d="M136.102664,171.938991c3.090388-.920283,3.035961,4.107496.050443,3.154579-1.478644-.471953-1.320541-2.776358-.050443-3.154579Z"/>
  <path class="cls-1" d="M158.313644,178.926697c2.435315-.532504,2.782131,2.718272,1.145427,3.205664-2.553397.760373-3.115541-2.774881-1.145427-3.205664Z"/>
  <path class="cls-1" d="M145.560792,180.369061c3.090388-.920283,3.035961,4.107496.050443,3.154579-1.478644-.471953-1.320541-2.776358-.050443-3.154579Z"/>
  <path class="cls-1" d="M145.355342,150.761155c2.446353-.730934,3.214183,2.54518,1.305374,3.154433-2.491571.795259-2.934103-2.667793-1.305374-3.154433Z"/>
  <path class="cls-1" d="M162.832156,156.312518c3.090388-.920283,3.035961,4.107496.050443,3.154579-1.478644-.471953-1.320541-2.776358-.050443-3.154579Z"/>
  <path class="cls-1" d="M134.873936,165.561951c2.435315-.532504,2.782131,2.718272,1.145427,3.205664-2.553397.760373-3.115541-2.774881-1.145427-3.205664Z"/>
  <path class="cls-1" d="M320.325812,71.415993c.34625.412593.731071,1.639045.580944,2.196074l-5.037457-3.389442c.452808-.269993.970894-.978527,1.493488-.902684.179591.026064,2.799333,1.900995,2.963026,2.096052Z"/>
  <path class="cls-1" d="M349.943681,197.225948c2.403775-.522979,2.596511,2.824291.518275,3.005813-1.885568.164694-2.353119-2.606614-.518275-3.005813Z"/>
  <path class="cls-1" d="M296.688692,186.139898c1.432927,1.43646-1.127412,3.698485-2.41499,2.108248-1.257587-1.553196,1.101221-3.425257,2.41499-2.108248Z"/>
  <path class="cls-1" d="M334.520489,214.291028c2.052472-.610358,2.946757,2.373169,1.095497,2.955602-2.17576.684525-2.714576-2.474125-1.095497-2.955602Z"/>
  <path class="cls-1" d="M339.454999,165.766571c1.858779-.558487,2.859721,1.911317,1.356521,2.798885-2.066331,1.22007-3.29402-2.216745-1.356521-2.798885Z"/>
  <path class="cls-1" d="M344.397275,207.298576c2.302729-.201137,2.185704,3.53976-.211778,3.004446-1.589234-.354847-1.646007-2.842174.211778-3.004446Z"/>
  <path class="cls-1" d="M328.765723,161.038607c1.487405-.327238,2.700124,1.07294,1.70237,2.327043-1.910117,2.400876-3.981286-1.825667-1.70237-2.327043Z"/>
  <path class="cls-1" d="M296.274456,197.434247c2.37278-.710361,2.71129,2.646864.731404,3.009699-1.839785.33716-2.367432-2.519907-.731404-3.009699Z"/>
  <path class="cls-1" d="M302.238567,207.507151c2.321926-.702829,2.626105,3.351777.180383,3.038203-1.760602-.225732-1.566845-2.618532-.180383-3.038203Z"/>
  <path class="cls-1" d="M317.251837,161.034083c1.82005-.385089,2.520714,2.541357.935889,3.007763-2.105938.619766-3.03635-2.563343-.935889-3.007763Z"/>
  <path class="cls-1" d="M311.907645,214.282673c1.839417-.33901,2.413053,2.641536.726767,3.012356-2.373207.521876-2.520649-2.681738-.726767-3.012356Z"/>
  <path class="cls-1" d="M323.216537,216.755052c2.08186-.420574,2.655021,2.666243.724526,3.01652-1.793163.325359-2.665574-2.624392-.724526-3.01652Z"/>
  <path class="cls-1" d="M108.127112,84.128808c.994057-.284752,2.353416.430936,2.658806,1.400932.293123.931035-.559651,3.289193-1.393032,2.00348-.261783-.403871-1.429605-2.656244-1.515535-3.014585-.058189-.242659.051595-.333061.249762-.389827Z"/>
  <path class="cls-1" d="M349.376874,176.206953l-2.867931.623804c-1.010881-2.760481,2.937309-3.578058,2.867931-.623804Z"/>
  <path class="cls-1" d="M310.316829,78.135425c-1.533759.507808-2.361146-.02741-2.926768-1.501206-.294843-.76825,1.062082-1.381446,1.28517-1.282806.337117.149059,1.771922,2.657326,1.641597,2.784012Z"/>
  <path class="cls-1" d="M281.303777,103.036152c.080714.052556.827478,1.609452.83648,1.735229.043818.612262-.426562,1.487602-.40571,2.150548-2.479451-.861339-1.272639-2.022285-1.024588-3.907446.18253.026012.474745-.055863.593818.021669Z"/>
  <path class="cls-1" d="M327.381456,92.93951c-.225746.248342-2.375497-1.831193-2.455512-2.173895-.064696-.277089,1.62743-1.321295,1.738058-1.315475.450973.023725.548289,2.975651.717455,3.48937Z"/>
  <path class="cls-1" d="M65.638019,25.912287c-.043654.52014-.603117,3.696044-.924186,3.695798-1.128342-.000863-.894468-3.986091.924186-3.695798Z"/>
  <path class="cls-1" d="M169.470397,150.101057c.061924.924842,1.244038,2.158337.124195,2.690959-2.313591,1.100395-1.441023-2.012081-.124195-2.690959Z"/>
  <path class="cls-1" d="M57.20815,80.810755c.182363,1.447408-2.442541,2.761179-3.288143,1.846255-.309802-.3352.127656-.358935.267421-.4556.360257-.249165,2.773476-1.627366,3.020722-1.390655Z"/>
  <path class="cls-1" d="M189.621246,149.076461c.078785.093485.049327.285817-.124914.420899-.224854.17432-2.384336,1.138553-2.546444,1.012368l1.030505-2.670402c.242136.391355,1.534347,1.110757,1.640853,1.237135Z"/>
  <path class="cls-1" d="M322.037588,59.015925c-.552757,2.650626-1.472048,1.645011-2.262677-.204778l2.262677.204778Z"/>
  <path class="cls-1" d="M166.801049,147.632245c-.337528-.381611,1.045008-2.63184,1.334304-3.082196,1.025492,1.374811-.058686,2.524891-1.334304,3.082196Z"/>
  <path class="cls-1" d="M52.891347,44.418307c.114638.595001-.179964.325773-.452202.462068-.445674.223125-1.107166.692493-1.510737.378817-1.51345-1.176329,1.03187-1.234195,1.962939-.840886Z"/>
  <path class="cls-1" d="M74.273237,80.19525c.049073.357422-.467945.193843-.715993.203002-.650041.024003-1.306878-.015028-1.955368-.002028l.536637-1.016662,2.134724.815688Z"/>
</svg>